<?xml version="1.0" standalone="no"?>
<!DOCTYPE svg PUBLIC "-//W3C//DTD SVG 1.1//EN" "http://www.w3.org/Graphics/SVG/1.1/DTD/svg11.dtd" >
<svg xmlns="http://www.w3.org/2000/svg" xmlns:xlink="http://www.w3.org/1999/xlink" version="1.1">
<metadata>
Created by FontForge 20170731 at Wed Nov 30 14:30:39 2011
 By ,,,
Published by Die Gestalten Verlag GmbH &#38; Co. KG, 2008
Copyright (c) by Binnenland, 2006, Designed by Mika Mischler / 2002-2006 All rights reserved. This software may not be reproduced, used, displayed, modified, disclosed or transferred without the express written approval of (Binnenland).
</metadata>
<defs>
<font id="OxfamTSTARPRO-Headline" horiz-adv-x="553" >
  <font-face 
    font-family="Oxfam TSTAR PRO Headline"
    font-weight="900"
    font-stretch="normal"
    units-per-em="1000"
    panose-1="2 0 8 6 3 0 0 2 0 4"
    ascent="774"
    descent="-226"
    x-height="712"
    cap-height="712"
    bbox="-40 -215 1026 977"
    underline-thickness="51"
    underline-position="-239"
    unicode-range="U+0020-2265"
  />
<missing-glyph horiz-adv-x="1000" 
 />
    <glyph glyph-name=".notdef" horiz-adv-x="1000" 
 />
    <glyph glyph-name=".null" horiz-adv-x="0" 
 />
    <glyph glyph-name="nonmarkingreturn" horiz-adv-x="333" 
 />
    <glyph glyph-name="space" unicode=" " horiz-adv-x="220" 
 />
    <glyph glyph-name="exclam" unicode="!" horiz-adv-x="297" 
d="M211 216h-125v497h125v-497zM225 0h-153v154h153v-154z" />
    <glyph glyph-name="quotedbl" unicode="&#x22;" horiz-adv-x="370" 
d="M166 514h-94v179h94v-179zM298 514h-93v179h93v-179z" />
    <glyph glyph-name="numbersign" unicode="#" horiz-adv-x="650" 
d="M578 390h-105l-13 -79h90v-102h-105l-31 -191h-104l28 191h-77l-33 -191h-106l31 191h-81v102h97l14 79h-82v101h95l30 175h107l-28 -175h77l31 175h105l-30 -175h90v-101zM368 390h-79l-14 -79h79z" />
    <glyph glyph-name="dollar" unicode="$" horiz-adv-x="530" 
d="M487 197q0 -73 -45.5 -127.5t-118.5 -71.5v-78h-123v79q-72 18 -114.5 77t-42.5 140h129q0 -45 25 -70.5t64 -25.5q44 0 71 22t27 57q0 47 -49 75q-23 14 -154 80q-45 22 -73.5 68.5t-28.5 101.5q0 69 39.5 119t106.5 67v78h123v-77q71 -19 113.5 -76.5t42.5 -136.5h-131
q0 43 -23.5 67.5t-61.5 24.5q-34 0 -57 -18t-23 -50q0 -36 42 -58q139 -71 146 -75q116 -63 116 -192z" />
    <glyph glyph-name="percent" unicode="%" horiz-adv-x="870" 
d="M798 147q0 -63 -39 -100.5t-104 -37.5q-64 0 -103 37.5t-39 100.5v93q0 64 39 102.5t103 38.5q65 0 104 -38t39 -103v-93zM604 687l-223 -687h-115l224 687h114zM356 446q0 -63 -39 -101t-103 -38q-65 0 -103.5 37.5t-38.5 101.5v94q0 63 39 101.5t103 38.5
q65 0 103.5 -38t38.5 -102v-94zM690 147v93q0 34 -35 34q-34 0 -34 -34v-93q0 -33 34 -33q35 0 35 33zM249 446v94q0 32 -35 32q-34 0 -34 -32v-94q0 -33 34 -33q35 0 35 33z" />
    <glyph glyph-name="ampersand" unicode="&#x26;" horiz-adv-x="663" 
d="M286 122q33 0 59.5 17.5t31.5 56.5q-20 17 -41 34.5t-45 38t-37 31.5q-61 -38 -61 -92q0 -46 27.5 -66t65.5 -20zM495 527h-131q0 60 -71 60t-71 -60q0 -19 8 -31t27 -28q270 -226 334 -282l-83 -104l-24 23q-28 -57 -82.5 -85t-115.5 -28q-90 0 -157 53.5t-67 163.5
q0 108 95 177q-66 59 -66 143q0 65 33.5 109.5t77 61.5t91.5 17q47 0 91 -17.5t77.5 -62.5t33.5 -110z" />
    <glyph glyph-name="quotesingle" unicode="'" horiz-adv-x="255" 
d="M183 495h-111v191h111v-191z" />
    <glyph glyph-name="parenleft" unicode="(" horiz-adv-x="318" 
d="M246 -10l-69 -81q-66 61 -85.5 97.5t-19.5 93.5v481q0 51 16.5 85t69.5 87l19 19l68 -80q-15 -19 -35 -42q-21 -25 -24 -32.5t-3 -29.5v-12l-1 -471q0 -37 8.5 -52t55.5 -63z" />
    <glyph glyph-name="parenright" unicode=")" horiz-adv-x="321" 
d="M249 100q0 -36 -3 -54.5t-22.5 -49.5t-60.5 -70l-18 -17l-73 83q49 43 58.5 59t9.5 54v471q0 13 -2 24.5t-4.5 19t-8.5 16.5t-9 13t-12.5 14t-12.5 13q-1 1 -5 4.5t-7.5 6.5t-3.5 4l71 78l16 -15q53 -49 70 -85.5t17 -87.5v-481z" />
    <glyph glyph-name="asterisk" unicode="*" horiz-adv-x="593" 
d="M469 462l-52 -88l-75 45l4 -87h-101l2 86l-73 -44l-50 87l73 40q-9 5 -35 20t-38 21l50 88l73 -44q0 14 -1 44t-1 42h101l-4 -88l75 46l50 -89l-72 -39q69 -38 74 -40z" />
    <glyph glyph-name="plus" unicode="+" horiz-adv-x="556" 
d="M489 227h-159v-164h-107v164h-157v106h157v153h107v-153h159v-106z" />
    <glyph glyph-name="comma" unicode="," horiz-adv-x="335" 
d="M263 138l-157 -249h-89l93 249h153z" />
    <glyph glyph-name="hyphen" unicode="-" horiz-adv-x="458" 
d="M386 227h-314v106h314v-106z" />
    <glyph glyph-name="period" unicode="." horiz-adv-x="277" 
d="M209 0h-141v141h141v-141z" />
    <glyph glyph-name="slash" unicode="/" horiz-adv-x="512" 
d="M440 737l-255 -785h-113l257 785h111z" />
    <glyph glyph-name="zero" unicode="0" horiz-adv-x="524" 
d="M462 192q0 -23 -4.5 -46.5t-18 -52t-35 -50.5t-59.5 -36.5t-86 -14.5q-58 0 -99.5 21.5t-61.5 55t-28.5 64.5t-8.5 60v326q0 22 4.5 46t18.5 52t35.5 50t58.5 36.5t85 14.5t85 -14.5t57.5 -36.5t34 -50.5t18 -52t4.5 -46.5v-326zM332 194v323q0 71 -70 71q-71 0 -71 -71
v-323q0 -41 22 -56.5t49 -15.5q26 0 48 15.5t22 56.5z" />
    <glyph glyph-name="one" unicode="1" horiz-adv-x="530" 
d="M462 0h-391v130h129v451l-94 -8v127l224 19v-589h132v-130z" />
    <glyph glyph-name="two" unicode="2" horiz-adv-x="519" 
d="M470 0h-421v166q0 91 94 168q26 22 85 56t86 57q25 22 25 64q0 38 -21 57.5t-59 19.5q-12 0 -23.5 -4t-24.5 -14.5t-21.5 -33.5t-9.5 -56h-130q0 27 6 56.5t21 62.5t38 59t60.5 43t83.5 17q93 0 152 -57.5t59 -148.5q0 -101 -71 -162q-27 -22 -89 -59t-90 -60
q-41 -32 -41 -70v-31h291v-130z" />
    <glyph glyph-name="three" unicode="3" horiz-adv-x="522" 
d="M456 605l-109 -166q62 -24 92.5 -75.5t30.5 -101.5v-66q0 -22 -6 -47.5t-21 -54t-38 -50.5t-60.5 -37t-84.5 -15q-59 0 -102.5 22t-65.5 57t-31.5 70.5t-9.5 72.5h130q0 -52 24.5 -72t53.5 -20t54 16.5t25 57.5v64q0 67 -80 67h-67v98l100 157h-214v130h379v-107z" />
    <glyph glyph-name="four" unicode="4" horiz-adv-x="532" 
d="M474 0h-132v183h-284v107l156 422h135l-147 -399h140v241h132v-554z" />
    <glyph glyph-name="five" unicode="5" horiz-adv-x="519" 
d="M473 199q0 -89 -63 -148t-152 -59t-151 61.5t-62 157.5h130q0 -41 22.5 -65t60.5 -24q35 0 60 20.5t25 56.5v60q0 33 -21.5 56t-61.5 23h-189v99l20 275h350v-130h-229l-8 -115h58q86 0 148.5 -58t62.5 -148v-62z" />
    <glyph glyph-name="six" unicode="6" horiz-adv-x="525" 
d="M338 193v80q0 41 -25 56t-55 15q-17 0 -32 -4t-30 -21.5t-15 -45.5v-80q0 -40 25 -56t52 -16q29 0 54.5 15.5t25.5 56.5zM473 517h-130q0 69 -81 69t-81 -71v-60q41 19 81 19q58 0 101 -21t65 -53.5t32 -64t10 -61.5v-84q0 -28 -10 -58.5t-31.5 -63.5t-66 -54.5
t-104.5 -21.5q-46 0 -83 14.5t-59.5 36t-37.5 49t-21 52t-6 45.5v328q0 28 10.5 59t32.5 64t66 54.5t102 21.5t102 -21.5t66 -54.5t32.5 -64t10.5 -59z" />
    <glyph glyph-name="seven" unicode="7" horiz-adv-x="518" 
d="M477 613l-220 -613h-139l212 582h-289v130h436v-99z" />
    <glyph glyph-name="eight" unicode="8" horiz-adv-x="529" 
d="M486 212q0 -26 -5.5 -53.5t-21.5 -58t-39.5 -54t-63.5 -39t-91 -15.5q-61 0 -107 22.5t-69.5 58t-34.5 70.5t-11 69q0 38 17.5 81t54.5 73q-31 28 -48 67.5t-17 75.5q0 33 10 66.5t32.5 66.5t67 54t105.5 21q59 0 103 -21t67 -54t33.5 -66.5t10.5 -66.5q0 -35 -17.5 -75
t-50.5 -68q38 -30 56.5 -73t18.5 -81zM354 212q0 40 -25.5 63.5t-63.5 23.5q-39 0 -64.5 -23.5t-25.5 -63.5q0 -35 17.5 -57t35.5 -27.5t37 -5.5q18 0 36 5.5t35.5 27.5t17.5 57zM347 509q0 44 -26.5 61t-55.5 17q-30 0 -57 -17t-27 -61q0 -37 23.5 -58.5t60.5 -21.5
q36 0 59 22t23 58z" />
    <glyph glyph-name="nine" unicode="9" horiz-adv-x="525" 
d="M341 438v79q0 70 -77 70q-12 0 -23.5 -2.5t-25.5 -9t-22.5 -21.5t-8.5 -37v-79q0 -42 25.5 -57.5t54.5 -15.5q12 0 23.5 2.5t24.5 9.5t21 22.5t8 38.5zM341 194v61q-48 -20 -81 -20q-47 0 -84.5 15t-59.5 37t-36.5 50.5t-20 53t-5.5 46.5v81q0 28 10 59t32 64t65.5 54.5
t102.5 21.5q47 0 84.5 -14.5t60 -36t38 -49t21 -52t5.5 -45.5v-328q0 -28 -10.5 -59t-32.5 -64t-66 -54.5t-102 -21.5t-102 21.5t-66 54.5t-32.5 64t-10.5 59h130q0 -69 81 -69q79 0 79 71z" />
    <glyph glyph-name="colon" unicode=":" horiz-adv-x="277" 
d="M209 0h-141v141h141v-141zM209 291h-141v141h141v-141z" />
    <glyph glyph-name="semicolon" unicode=";" horiz-adv-x="300" 
d="M234 138l-156 -249h-89l88 249h157zM218 291h-141v141h141v-141z" />
    <glyph glyph-name="less" unicode="&#x3c;" horiz-adv-x="559" 
d="M487 0h-153l-262 262l259 262h153l-260 -262z" />
    <glyph glyph-name="equal" unicode="=" horiz-adv-x="590" 
d="M482 322h-374v105h374v-105zM482 151h-374v105h374v-105z" />
    <glyph glyph-name="greater" unicode="&#x3e;" horiz-adv-x="560" 
d="M488 262l-264 -262h-152l262 262l-259 262h152z" />
    <glyph glyph-name="question" unicode="?" horiz-adv-x="453" 
d="M436 511q0 -96 -102 -178q-3 -3 -14 -11t-15 -11.5t-12 -12t-11 -15.5t-6 -17.5t-3 -23.5v-26h-131v23q0 79 48 135q11 12 43 35.5t52.5 47.5t20.5 53q0 79 -78 79q-11 0 -23 -4t-25.5 -15t-22.5 -34.5t-11 -57.5h-129q0 35 10.5 73t33 77t66 64t101.5 25q92 0 150 -57.5
t58 -148.5zM286 0h-153v154h153v-154z" />
    <glyph glyph-name="at" unicode="@" horiz-adv-x="637" 
d="M539 18h-90v25q-8 -10 -26 -17.5t-35 -7.5q-61 0 -100.5 35.5t-39.5 102.5v182q0 66 41.5 102t101.5 36q33 0 52 -21v62q0 58 -37 84t-87 26q-49 0 -88 -27t-39 -85v-525q0 -29 13.5 -50t34.5 -31t40.5 -14.5t38.5 -4.5v-95q-62 0 -108.5 20t-69 51.5t-33 61.5t-10.5 59
v532q0 27 10 57.5t32.5 64.5t69 55.5t109.5 21.5q62 0 108 -21.5t69 -55.5t33 -64.5t10 -58.5v-500zM443 160v177q0 24 -16.5 36.5t-37.5 12.5q-23 0 -37 -13t-14 -39v-174q0 -26 14 -38.5t36 -12.5q24 0 39.5 12.5t15.5 38.5z" />
    <glyph glyph-name="A" unicode="A" horiz-adv-x="571" 
d="M554 0h-133l-42 163h-186l-42 -163h-134l187 712h160zM347 291l-60 228l-63 -228h123z" />
    <glyph glyph-name="B" unicode="B" horiz-adv-x="561" 
d="M504 202q0 -22 -4.5 -46t-18.5 -53t-35.5 -51t-59.5 -37t-87 -15h-227v712h222q60 0 103 -21t62.5 -54.5t27.5 -63.5t8 -60v-12q0 -34 -19.5 -72.5t-52.5 -60.5q37 -24 59 -63t22 -80v-23zM364 503v9q0 71 -72 71h-90v-153h96q66 0 66 73zM376 204v20q0 78 -74 78h-100
v-172h95q79 0 79 74z" />
    <glyph glyph-name="C" unicode="C" horiz-adv-x="534" 
d="M491 216q0 -36 -10.5 -72.5t-33 -72t-67 -58t-104.5 -22.5q-48 0 -86.5 15t-61.5 38t-38.5 52t-21.5 54.5t-6 47.5v318q0 29 10 60t32.5 64.5t67 55t105.5 21.5q47 0 85.5 -16t61.5 -40.5t39 -55.5t22 -58t6 -51h-131q0 53 -26.5 73t-56.5 20q-13 0 -25.5 -2.5t-27.5 -10
t-24 -23.5t-9 -39v-316q0 -44 27.5 -60.5t58.5 -16.5q12 0 24.5 3.5t26.5 12.5t23 29.5t9 49.5h131z" />
    <glyph glyph-name="D" unicode="D" horiz-adv-x="561" 
d="M499 204q0 -23 -4.5 -47t-18 -53.5t-35 -51.5t-58.5 -37t-85 -15h-226v713h222q60 0 103.5 -22t64 -56t29 -65t8.5 -60v-306zM371 205v302q0 44 -23.5 60.5t-53.5 16.5h-93v-455h95q29 0 52 16t23 60z" />
    <glyph glyph-name="E" unicode="E" horiz-adv-x="526" 
d="M484 0h-412v712h412v-129h-283v-144h262v-129h-262v-181h283v-129z" />
    <glyph glyph-name="F" unicode="F" horiz-adv-x="516" 
d="M484 583h-283v-145h262v-129h-262v-309h-129v712h412v-129z" />
    <glyph glyph-name="G" unicode="G" 
d="M491 197q0 -29 -11 -61.5t-33.5 -66.5t-67.5 -56t-104 -22t-103 22t-66.5 56.5t-33 67t-10.5 61.5v318q0 29 10 60t32.5 64.5t67 55t105.5 21.5q58 0 102.5 -23t67 -58.5t33.5 -71t11 -68.5h-131q0 52 -26.5 72t-56.5 20q-13 0 -25.5 -2.5t-27.5 -9.5t-24 -23t-9 -39
v-316q0 -24 9 -40t24 -23.5t27.5 -10t25.5 -2.5q18 0 34 4.5t32.5 22.5t16.5 49v91h-104v130h235v-222z" />
    <glyph glyph-name="H" unicode="H" horiz-adv-x="585" 
d="M513 0h-131v307h-180v-307h-130v712h130v-275h180v275h131v-712z" />
    <glyph glyph-name="I" unicode="I" horiz-adv-x="274" 
d="M72 712h130v-712h-130v712z" />
    <glyph glyph-name="J" unicode="J" horiz-adv-x="471" 
d="M404 196q0 -97 -51.5 -151t-144.5 -54q-92 0 -144 61.5t-52 162.5h130q0 -94 67 -94q66 0 66 69v393h-195v129h324v-516z" />
    <glyph glyph-name="K" unicode="K" horiz-adv-x="555" 
d="M538 0h-154l-157 274l-25 -36v-238h-130v712h130v-258l175 258h152l-226 -323z" />
    <glyph glyph-name="L" unicode="L" horiz-adv-x="490" 
d="M483 0h-411v712h129v-583h282v-129z" />
    <glyph glyph-name="M" unicode="M" horiz-adv-x="666" 
d="M203 0h-131v712h137l123 -297l122 297h140v-712h-130v418l-86 -217h-90l-85 218v-419z" />
    <glyph glyph-name="N" unicode="N" horiz-adv-x="576" 
d="M504 0h-134l-168 394v-394h-130v712h132l172 -402v402h128v-712z" />
    <glyph glyph-name="O" unicode="O" 
d="M491 197q0 -29 -10.5 -61.5t-33 -66.5t-67 -56t-104.5 -22q-48 0 -86.5 15t-61.5 38t-38.5 52t-21.5 54.5t-6 47.5v318q0 29 10 60t32.5 64.5t67 55t105.5 21.5q58 0 102.5 -21.5t67 -55t33.5 -65.5t11 -60v-318zM360 198v316q0 23 -9 39t-23.5 23.5t-26.5 10t-24 2.5
q-13 0 -25.5 -2.5t-27.5 -10t-24 -23.5t-9 -39v-316q0 -44 27.5 -60.5t58.5 -16.5q17 0 33.5 4.5t33 23t16.5 49.5z" />
    <glyph glyph-name="P" unicode="P" horiz-adv-x="536" 
d="M499 462q0 -23 -4.5 -47.5t-18 -53.5t-35 -51.5t-58.5 -37.5t-85 -15h-97v-257h-129v712h222q60 0 103.5 -22t64 -56t29 -65t8.5 -60v-47zM371 463v44q0 44 -24.5 60t-54.5 16h-91v-197h93q77 0 77 77z" />
    <glyph glyph-name="Q" unicode="Q" 
d="M232 -96v91q-47 7 -82 31t-53 55.5t-26.5 61t-8.5 55.5v318q0 29 10 60t32.5 64.5t67 55t105.5 21.5q58 0 102.5 -21.5t67 -55t33.5 -65.5t11 -60v-318q0 -26 -8.5 -55.5t-26.5 -61t-53.5 -55.5t-83.5 -31v-90h-87zM360 198v316q0 23 -9 39t-23.5 23.5t-26.5 10t-24 2.5
q-13 0 -25.5 -2.5t-27.5 -10t-24 -23.5t-9 -39v-316q0 -49 41 -68v117h87v-118q41 20 41 69z" />
    <glyph glyph-name="R" unicode="R" horiz-adv-x="559" 
d="M535 0h-146l-129 275h-58v-275h-130v712h223q61 0 104.5 -21.5t64.5 -56t29.5 -65t8.5 -59.5v-31q0 -31 -7.5 -62t-33 -67.5t-66.5 -55.5zM371 480v27q0 44 -24 60t-54 16h-91v-179h93q76 0 76 76z" />
    <glyph glyph-name="S" unicode="S" horiz-adv-x="530" 
d="M487 197q0 -89 -64.5 -147.5t-160.5 -58.5q-98 0 -158.5 63.5t-60.5 161.5h129q0 -45 25 -70.5t64 -25.5q44 0 71 22t27 57q0 47 -49 75q-23 14 -154 80q-45 22 -73.5 68.5t-28.5 101.5q0 86 58.5 140t150.5 54q95 0 155.5 -62t60.5 -158h-131q0 43 -23.5 67.5
t-61.5 24.5q-34 0 -57 -18t-23 -50q0 -36 42 -58q139 -71 146 -75q116 -63 116 -192z" />
    <glyph glyph-name="T" unicode="T" horiz-adv-x="484" 
d="M466 582h-160v-582h-129v582h-159v130h448v-130z" />
    <glyph glyph-name="U" unicode="U" 
d="M491 197q0 -31 -10 -63.5t-32 -66t-66.5 -55t-105.5 -21.5t-105.5 21.5t-67 55.5t-32.5 66.5t-10 63.5v514h130v-514q0 -44 27 -60.5t58 -16.5q18 0 34.5 4.5t33 23t16.5 49.5v514h130v-515z" />
    <glyph glyph-name="V" unicode="V" horiz-adv-x="552" 
d="M404 712h130l-176 -712h-161l-179 712h131l126 -521z" />
    <glyph glyph-name="W" unicode="W" horiz-adv-x="790" 
d="M772 712l-148 -712h-124l-104 413l-107 -413h-123l-148 712h134l85 -438l110 437h95l110 -437l85 438h135z" />
    <glyph glyph-name="X" unicode="X" horiz-adv-x="552" 
d="M534 0h-150l-108 219l-108 -219h-150l184 357l-183 355h148l108 -218l112 218h145l-184 -353z" />
    <glyph glyph-name="Y" unicode="Y" horiz-adv-x="540" 
d="M522 712l-187 -454v-258h-130v260l-187 452h142l110 -275l111 275h141z" />
    <glyph glyph-name="Z" unicode="Z" horiz-adv-x="468" 
d="M446 0h-424v102l254 481h-240v129h396v-100l-253 -483h267v-129z" />
    <glyph glyph-name="bracketleft" unicode="[" horiz-adv-x="328" 
d="M256 -74h-184v815h184v-104h-78v-606h78v-105z" />
    <glyph glyph-name="backslash" unicode="\" horiz-adv-x="511" 
d="M439 -50h-110l-257 785h112z" />
    <glyph glyph-name="bracketright" unicode="]" horiz-adv-x="328" 
d="M256 -74h-184v105h78v606h-78v104h184v-815z" />
    <glyph glyph-name="asciicircum" unicode="^" horiz-adv-x="534" 
d="M462 382h-120l-74 134l-73 -134h-123l153 283h88z" />
    <glyph glyph-name="underscore" unicode="_" horiz-adv-x="503" 
d="M515 -144h-527v101h527v-101z" />
    <glyph glyph-name="grave" unicode="`" horiz-adv-x="368" 
d="M296 520h-110l-114 191h131z" />
    <glyph glyph-name="a" unicode="a" horiz-adv-x="571" 
d="M554 0h-133l-42 163h-186l-42 -163h-134l187 712h160zM347 291l-60 228l-63 -228h123z" />
    <glyph glyph-name="b" unicode="b" horiz-adv-x="561" 
d="M504 202q0 -22 -4.5 -46t-18.5 -53t-35.5 -51t-59.5 -37t-87 -15h-227v712h222q60 0 103 -21t62.5 -54.5t27.5 -63.5t8 -60v-12q0 -34 -19.5 -72.5t-52.5 -60.5q37 -24 59 -63t22 -80v-23zM364 503v9q0 71 -72 71h-90v-153h96q66 0 66 73zM376 204v20q0 78 -74 78h-100
v-172h95q79 0 79 74z" />
    <glyph glyph-name="c" unicode="c" horiz-adv-x="534" 
d="M491 216q0 -36 -10.5 -72.5t-33 -72t-67 -58t-104.5 -22.5q-48 0 -86.5 15t-61.5 38t-38.5 52t-21.5 54.5t-6 47.5v318q0 29 10 60t32.5 64.5t67 55t105.5 21.5q47 0 85.5 -16t61.5 -40.5t39 -55.5t22 -58t6 -51h-131q0 53 -26.5 73t-56.5 20q-13 0 -25.5 -2.5t-27.5 -10
t-24 -23.5t-9 -39v-316q0 -44 27.5 -60.5t58.5 -16.5q12 0 24.5 3.5t26.5 12.5t23 29.5t9 49.5h131z" />
    <glyph glyph-name="d" unicode="d" horiz-adv-x="561" 
d="M499 204q0 -23 -4.5 -47t-18 -53.5t-35 -51.5t-58.5 -37t-85 -15h-226v713h222q60 0 103.5 -22t64 -56t29 -65t8.5 -60v-306zM371 205v302q0 44 -23.5 60.5t-53.5 16.5h-93v-455h95q29 0 52 16t23 60z" />
    <glyph glyph-name="e" unicode="e" horiz-adv-x="526" 
d="M484 0h-412v712h412v-129h-283v-144h262v-129h-262v-181h283v-129z" />
    <glyph glyph-name="f" unicode="f" horiz-adv-x="516" 
d="M484 583h-283v-145h262v-129h-262v-309h-129v712h412v-129z" />
    <glyph glyph-name="g" unicode="g" 
d="M491 197q0 -29 -11 -61.5t-33.5 -66.5t-67.5 -56t-104 -22t-103 22t-66.5 56.5t-33 67t-10.5 61.5v318q0 29 10 60t32.5 64.5t67 55t105.5 21.5q58 0 102.5 -23t67 -58.5t33.5 -71t11 -68.5h-131q0 52 -26.5 72t-56.5 20q-13 0 -25.5 -2.5t-27.5 -9.5t-24 -23t-9 -39
v-316q0 -24 9 -40t24 -23.5t27.5 -10t25.5 -2.5q18 0 34 4.5t32.5 22.5t16.5 49v91h-104v130h235v-222z" />
    <glyph glyph-name="h" unicode="h" horiz-adv-x="585" 
d="M513 0h-131v307h-180v-307h-130v712h130v-275h180v275h131v-712z" />
    <glyph glyph-name="i" unicode="i" horiz-adv-x="274" 
d="M72 712h130v-712h-130v712z" />
    <glyph glyph-name="j" unicode="j" horiz-adv-x="471" 
d="M404 196q0 -97 -51.5 -151t-144.5 -54q-92 0 -144 61.5t-52 162.5h130q0 -94 67 -94q66 0 66 69v393h-195v129h324v-516z" />
    <glyph glyph-name="k" unicode="k" horiz-adv-x="555" 
d="M538 0h-154l-157 274l-25 -36v-238h-130v712h130v-258l175 258h152l-226 -323z" />
    <glyph glyph-name="l" unicode="l" horiz-adv-x="490" 
d="M483 0h-411v712h129v-583h282v-129z" />
    <glyph glyph-name="m" unicode="m" horiz-adv-x="666" 
d="M203 0h-131v712h137l123 -297l122 297h140v-712h-130v418l-86 -217h-90l-85 218v-419z" />
    <glyph glyph-name="n" unicode="n" horiz-adv-x="576" 
d="M504 0h-134l-168 394v-394h-130v712h132l172 -402v402h128v-712z" />
    <glyph glyph-name="o" unicode="o" 
d="M491 197q0 -29 -10.5 -61.5t-33 -66.5t-67 -56t-104.5 -22q-48 0 -86.5 15t-61.5 38t-38.5 52t-21.5 54.5t-6 47.5v318q0 29 10 60t32.5 64.5t67 55t105.5 21.5q58 0 102.5 -21.5t67 -55t33.5 -65.5t11 -60v-318zM360 198v316q0 23 -9 39t-23.5 23.5t-26.5 10t-24 2.5
q-13 0 -25.5 -2.5t-27.5 -10t-24 -23.5t-9 -39v-316q0 -44 27.5 -60.5t58.5 -16.5q17 0 33.5 4.5t33 23t16.5 49.5z" />
    <glyph glyph-name="p" unicode="p" horiz-adv-x="536" 
d="M499 462q0 -23 -4.5 -47.5t-18 -53.5t-35 -51.5t-58.5 -37.5t-85 -15h-97v-257h-129v712h222q60 0 103.5 -22t64 -56t29 -65t8.5 -60v-47zM371 463v44q0 44 -24.5 60t-54.5 16h-91v-197h93q77 0 77 77z" />
    <glyph glyph-name="q" unicode="q" 
d="M232 -96v91q-47 7 -82 31t-53 55.5t-26.5 61t-8.5 55.5v318q0 29 10 60t32.5 64.5t67 55t105.5 21.5q58 0 102.5 -21.5t67 -55t33.5 -65.5t11 -60v-318q0 -26 -8.5 -55.5t-26.5 -61t-53.5 -55.5t-83.5 -31v-90h-87zM360 198v316q0 23 -9 39t-23.5 23.5t-26.5 10t-24 2.5
q-13 0 -25.5 -2.5t-27.5 -10t-24 -23.5t-9 -39v-316q0 -49 41 -68v117h87v-118q41 20 41 69z" />
    <glyph glyph-name="r" unicode="r" horiz-adv-x="559" 
d="M535 0h-146l-129 275h-58v-275h-130v712h223q61 0 104.5 -21.5t64.5 -56t29.5 -65t8.5 -59.5v-31q0 -31 -7.5 -62t-33 -67.5t-66.5 -55.5zM371 480v27q0 44 -24 60t-54 16h-91v-179h93q76 0 76 76z" />
    <glyph glyph-name="s" unicode="s" horiz-adv-x="530" 
d="M487 197q0 -89 -64.5 -147.5t-160.5 -58.5q-98 0 -158.5 63.5t-60.5 161.5h129q0 -45 25 -70.5t64 -25.5q44 0 71 22t27 57q0 47 -49 75q-23 14 -154 80q-45 22 -73.5 68.5t-28.5 101.5q0 86 58.5 140t150.5 54q95 0 155.5 -62t60.5 -158h-131q0 43 -23.5 67.5
t-61.5 24.5q-34 0 -57 -18t-23 -50q0 -36 42 -58q139 -71 146 -75q116 -63 116 -192z" />
    <glyph glyph-name="t" unicode="t" horiz-adv-x="484" 
d="M466 582h-160v-582h-129v582h-159v130h448v-130z" />
    <glyph glyph-name="u" unicode="u" 
d="M491 197q0 -31 -10 -63.5t-32 -66t-66.5 -55t-105.5 -21.5t-105.5 21.5t-67 55.5t-32.5 66.5t-10 63.5v514h130v-514q0 -44 27 -60.5t58 -16.5q18 0 34.5 4.5t33 23t16.5 49.5v514h130v-515z" />
    <glyph glyph-name="v" unicode="v" horiz-adv-x="552" 
d="M404 712h130l-176 -712h-161l-179 712h131l126 -521z" />
    <glyph glyph-name="w" unicode="w" horiz-adv-x="790" 
d="M772 712l-148 -712h-124l-104 413l-107 -413h-123l-148 712h134l85 -438l110 437h95l110 -437l85 438h135z" />
    <glyph glyph-name="x" unicode="x" horiz-adv-x="552" 
d="M534 0h-150l-108 219l-108 -219h-150l184 357l-183 355h148l108 -218l112 218h145l-184 -353z" />
    <glyph glyph-name="y" unicode="y" horiz-adv-x="540" 
d="M522 712l-187 -454v-258h-130v260l-187 452h142l110 -275l111 275h141z" />
    <glyph glyph-name="z" unicode="z" horiz-adv-x="468" 
d="M446 0h-424v102l254 481h-240v129h396v-100l-253 -483h267v-129z" />
    <glyph glyph-name="braceleft" unicode="{" horiz-adv-x="327" 
d="M255 -63h-52q-131 0 -131 131v544q0 130 131 130h52v-105h-48q-11 0 -15 -0.5t-8.5 -0.5t-5 -3.5t-1 -5.5t0 -10.5t0.5 -14.5v-527q0 -7 -1 -17q-1 -11 2 -13t19 -2h9h48v-106z" />
    <glyph glyph-name="bar" unicode="|" horiz-adv-x="250" 
d="M178 -50h-106v787h106v-787z" />
    <glyph glyph-name="braceright" unicode="}" horiz-adv-x="330" 
d="M258 67q0 -66 -31 -98t-101 -32h-54v105h55l23 -1q2 2 2 32v531q0 29 -2 33h-78v104h54q132 0 132 -129v-545z" />
    <glyph glyph-name="asciitilde" unicode="~" horiz-adv-x="560" 
d="M407 343l81 -62q-53 -51 -81.5 -67t-60.5 -16q-25 0 -69.5 20.5t-67.5 20.5q-18 0 -60 -43l-77 63q50 50 78.5 66.5t60.5 16.5q25 0 69 -21t68 -21q15 0 59 43z" />
    <glyph glyph-name="exclamdown" unicode="&#xa1;" horiz-adv-x="297" 
d="M86 322h125v-497h-125v497zM72 538h153v-154h-153v154z" />
    <glyph glyph-name="cent" unicode="&#xa2;" horiz-adv-x="507" 
d="M210 -132v128q-69 14 -108.5 64t-39.5 126v152q0 74 39.5 124t108.5 64v129h105v-130q65 -16 105 -70.5t44 -137.5h-109q0 106 -92 106q-42 0 -66.5 -22.5t-24.5 -62.5v-152q0 -36 20.5 -61t70.5 -25q41 0 66 26t25 78h110q-5 -86 -44.5 -140.5t-104.5 -67.5v-128h-105z
" />
    <glyph glyph-name="sterling" unicode="&#xa3;" horiz-adv-x="518" 
d="M475 498h-129q0 50 -22.5 69.5t-50.5 19.5q-27 0 -46.5 -15t-19.5 -53v-86h188v-129h-188v-174h267v-130h-398v304h-33v129h33v85q0 88 54 143t143 55t145.5 -61t56.5 -157z" />
    <glyph glyph-name="yen" unicode="&#xa5;" horiz-adv-x="564" 
d="M473 95h-126v-95h-128v95h-128v104h128v51h-128v103h88l-146 359h138l110 -275l112 275h138l-147 -359h89v-103h-126v-51h126v-104z" />
    <glyph glyph-name="brokenbar" unicode="&#xa6;" horiz-adv-x="246" 
d="M178 378h-110v333h110v-333zM178 -25h-110v334h110v-334z" />
    <glyph glyph-name="section" unicode="&#xa7;" horiz-adv-x="550" 
d="M79 370q0 57 23 89q-17 38 -17 70q0 81 54 121t135 40q89 0 143 -48.5t54 -135.5h-109q0 35 -23 55t-67 20q-80 0 -80 -52q0 -10 9 -19.5t22 -13.5q25 -7 135 -29q53 -11 86.5 -50t33.5 -94q0 -51 -22 -88q15 -24 15 -72q0 -88 -56 -129.5t-144 -41.5q-89 0 -144 49.5
t-55 135.5h111q0 -35 23.5 -54.5t64.5 -19.5q93 0 93 60q0 28 -35 38h1q-87 21 -139 31q-49 8 -80.5 46t-31.5 92zM218 337l151 -33q6 19 -3.5 36t-30.5 21l-145 31q-8 -18 0 -34.5t28 -20.5z" />
    <glyph glyph-name="dieresis" unicode="&#xa8;" horiz-adv-x="458" 
d="M386 552h-126v141h126v-141zM197 552h-125v141h125v-141z" />
    <glyph glyph-name="copyright" unicode="&#xa9;" horiz-adv-x="841" 
d="M536 255q0 -18 -5 -36t-17.5 -39t-38.5 -34t-63 -13q-35 0 -60.5 13t-37 34t-16.5 39t-5 36v177q0 17 5 35t17 38.5t38 33.5t61 13q47 0 76.5 -23.5t37.5 -48.5t8 -49h-87q0 35 -35 35t-35 -36v-174q0 -21 11 -29t24 -8q35 0 35 36h87zM769 344q0 -145 -101.5 -247.5
t-246.5 -102.5t-247 102.5t-102 247.5t102 247t247 102t246.5 -102t101.5 -247zM679 344q0 107 -76 183t-182 76q-107 0 -183 -75.5t-76 -183.5t76 -183.5t183 -75.5q106 0 182 75.5t76 183.5z" />
    <glyph glyph-name="ordfeminine" unicode="&#xaa;" horiz-adv-x="402" 
d="M162 579h-85q12 57 50.5 85.5t79.5 28.5q55 0 93 -29t38 -93v-239h-79l-2 11q-38 -17 -68 -17q-54 0 -92 30.5t-38 90.5q0 52 35.5 81t90.5 29h72v12q0 43 -49 43q-32 0 -46 -33zM257 459v20h-71q-45 0 -45 -32q0 -40 54 -40q25 0 43.5 14t18.5 38z" />
    <glyph glyph-name="guillemotleft" unicode="&#xab;" horiz-adv-x="513" 
d="M451 32l-231 230l231 233v-148l-84 -85l84 -83v-147zM254 31l-232 231l232 233v-147l-84 -86l84 -84v-147z" />
    <glyph glyph-name="logicalnot" unicode="&#xac;" horiz-adv-x="555" 
d="M487 155h-110v151h-309v107h419v-258z" />
    <glyph glyph-name="uni00AD" unicode="&#xad;" horiz-adv-x="589" 
d="M509 227h-429v106h429v-106z" />
    <glyph glyph-name="registered" unicode="&#xae;" horiz-adv-x="841" 
d="M556 402q0 -31 -16 -64t-55 -48l78 -155h-96l-74 147h-3v-147h-85v408h130q36 0 61.5 -13t37.5 -33t17 -38t5 -35v-22zM471 402v20q0 36 -36 36h-45v-92h46q35 0 35 36zM769 344q0 -145 -101.5 -247.5t-246.5 -102.5t-247 102.5t-102 247.5t102 247t247 102t246.5 -102
t101.5 -247zM679 344q0 108 -76 183.5t-182 75.5q-107 0 -183 -75.5t-76 -183.5t76 -183.5t183 -75.5q106 0 182 75.5t76 183.5z" />
    <glyph glyph-name="macron" unicode="&#xaf;" horiz-adv-x="465" 
d="M393 537h-321v107h321v-107z" />
    <glyph glyph-name="degree" unicode="&#xb0;" horiz-adv-x="335" 
d="M297 576q0 -53 -38 -91.5t-92 -38.5q-53 0 -91 38.5t-38 91.5q0 54 38 92t91 38q55 0 92.5 -37.5t37.5 -92.5zM208 576q0 17 -12 28.5t-29 11.5t-29 -12t-12 -28t12 -27.5t29 -11.5t29 11.5t12 27.5z" />
    <glyph glyph-name="plusminus" unicode="&#xb1;" horiz-adv-x="558" 
d="M490 228h-158v-90h-106v90h-158v105h158v143h106v-143h158v-105zM490 0h-422v105h422v-105z" />
    <glyph glyph-name="twosuperior" unicode="&#xb2;" horiz-adv-x="369" 
d="M301 594q0 -24 -6 -42t-22 -33.5t-26.5 -23t-34.5 -22.5q-2 -1 -15.5 -9t-18 -11.5t-13 -10t-11.5 -13.5t-3 -14v-1h149v-83h-232v87q0 51 53 93q8 6 36.5 22.5t45.5 31t17 28.5q0 33 -34 33q-15 0 -25 -15.5t-10 -42.5h-83q0 61 33.5 101t84.5 40q52 0 83.5 -32
t31.5 -83z" />
    <glyph glyph-name="threesuperior" unicode="&#xb3;" horiz-adv-x="367" 
d="M293 637l-51 -75q57 -27 57 -100v-23q0 -38 -27.5 -75.5t-87.5 -37.5q-62 0 -89 44t-27 97h82q0 -32 10.5 -44.5t22.5 -12.5q34 0 34 29v23q0 28 -34 28h-43v58l47 73h-106v83h212v-67z" />
    <glyph glyph-name="acute" unicode="&#xb4;" horiz-adv-x="367" 
d="M295 711l-116 -191h-107l92 191h131z" />
    <glyph glyph-name="mu" unicode="&#xb5;" horiz-adv-x="541" 
d="M183 -170h-111v694h111v-338q0 -84 88 -84q39 0 64 21.5t25 57.5v343h109v-524h-109v18q-35 -27 -89 -27q-44 0 -88 27v-188z" />
    <glyph glyph-name="paragraph" unicode="&#xb6;" horiz-adv-x="551" 
d="M479 0h-109v583h-29v-583h-110v352q-72 7 -115.5 53t-43.5 111q0 88 49 131.5t140 43.5h218v-691z" />
    <glyph glyph-name="periodcentered" unicode="&#xb7;" horiz-adv-x="282" 
d="M210 195h-138v140h138v-140z" />
    <glyph glyph-name="cedilla" unicode="&#xb8;" horiz-adv-x="341" 
d="M269 25l-73 -188h-124l89 188h108z" />
    <glyph glyph-name="onesuperior" unicode="&#xb9;" horiz-adv-x="352" 
d="M284 331h-216v82h66v207l-49 -6v82l131 13v-296h68v-82z" />
    <glyph glyph-name="ordmasculine" unicode="&#xba;" horiz-adv-x="413" 
d="M345 458q0 -62 -38.5 -98.5t-100.5 -36.5q-63 0 -100.5 36t-37.5 99v101q0 60 38 96.5t100 36.5q63 0 101 -36t38 -97v-101zM261 458v101q0 52 -55 52q-26 0 -41 -13.5t-15 -38.5v-101q0 -53 56 -53q26 0 40.5 14t14.5 39z" />
    <glyph glyph-name="guillemotright" unicode="&#xbb;" horiz-adv-x="513" 
d="M491 263l-231 -230v146l85 84l-85 85v148zM293 263l-231 -230v146l85 84l-85 85v148z" />
    <glyph glyph-name="onequarter" unicode="&#xbc;" horiz-adv-x="742" 
d="M284 331h-216v82h66v207l-49 -6v82l132 13v-296h67v-82zM552 749l-261 -799h-89l261 799h89zM674 0h-82v91h-143v61l83 222h83l-73 -200h50v91h82v-265z" />
    <glyph glyph-name="onehalf" unicode="&#xbd;" horiz-adv-x="773" 
d="M285 331h-217v82h66v207l-48 -5v81l130 13v-296h69v-82zM705 262q0 -51 -41 -87q-9 -8 -39 -24.5t-50 -33t-20 -33.5h149v-84h-233v87q0 52 52 93q8 6 35.5 21t45.5 30t18 31q0 32 -34 32q-14 0 -23.5 -15t-9.5 -42h-84q0 61 33 100.5t84 39.5q52 0 84.5 -31.5
t32.5 -83.5zM551 749l-260 -799h-90l261 799h89z" />
    <glyph glyph-name="threequarters" unicode="&#xbe;" horiz-adv-x="752" 
d="M684 0h-83v91h-143v61l83 222h84l-74 -200h50v91h83v-265zM293 637l-51 -75q58 -28 58 -100v-23q0 -38 -27.5 -75.5t-87.5 -37.5q-63 0 -90 44t-27 97h83q0 -57 33 -57t33 29v23q0 28 -33 28h-44v58l47 73h-104v83h210v-67zM560 749l-259 -799h-90l263 799h86z" />
    <glyph glyph-name="questiondown" unicode="&#xbf;" horiz-adv-x="433" 
d="M17 3q0 96 102 178q3 3 14 11t15 11.5t12 12t11 15.5t6 17.5t3 23.5v26h131v-23q0 -79 -48 -135q-11 -12 -43 -35.5t-52.5 -47.5t-20.5 -53q0 -79 78 -79q11 0 23 4t25.5 15t22.5 34.5t11 57.5h129q0 -35 -10.5 -73t-33 -77t-66 -64t-101.5 -25q-92 0 -150 57.5
t-58 148.5zM167 514h153v-154h-153v154z" />
    <glyph glyph-name="Agrave" unicode="&#xc0;" horiz-adv-x="571" 
d="M554 0h-133l-42 163h-186l-42 -163h-134l187 712h160zM347 291l-60 228l-63 -228h123zM358 760h-110l-114 191h131z" />
    <glyph glyph-name="Aacute" unicode="&#xc1;" horiz-adv-x="571" 
d="M554 0h-133l-42 163h-186l-42 -163h-134l187 712h160zM347 291l-60 228l-63 -228h123zM436 951l-116 -191h-107l92 191h131z" />
    <glyph glyph-name="Acircumflex" unicode="&#xc2;" horiz-adv-x="571" 
d="M554 0h-133l-42 163h-186l-42 -163h-134l187 712h160zM347 291l-60 228l-63 -228h123zM463 772h-119l-56 57l-56 -57h-121l138 171h78z" />
    <glyph glyph-name="Atilde" unicode="&#xc3;" horiz-adv-x="571" 
d="M554 0h-133l-42 163h-186l-42 -163h-134l187 712h160zM347 291l-60 228l-63 -228h123zM394 903l72 -72q-74 -71 -122 -71q-28 0 -61 20q-34 19 -52 19q-12 0 -51 -37l-72 70q72 72 122 72q19 0 61 -20q34 -19 52 -19q12 0 51 38z" />
    <glyph glyph-name="Adieresis" unicode="&#xc4;" horiz-adv-x="571" 
d="M554 0h-133l-42 163h-186l-42 -163h-134l187 712h160zM347 291l-60 228l-63 -228h123zM444 771h-126v141h126v-141zM255 771h-125v141h125v-141z" />
    <glyph glyph-name="Aring" unicode="&#xc5;" horiz-adv-x="571" 
d="M554 0h-133l-42 163h-186l-42 -163h-134l187 712h160zM347 291l-60 228l-63 -228h123zM406 858q0 -48 -34.5 -83.5t-84.5 -35.5q-48 0 -83 35.5t-35 83.5q0 49 35 84t83 35q50 0 84.5 -34.5t34.5 -84.5zM325 858q0 15 -11 26t-27 11q-15 0 -26 -11t-11 -26t11 -26t26 -11
q16 0 27 11t11 26z" />
    <glyph glyph-name="AE" unicode="&#xc6;" horiz-adv-x="782" 
d="M740 0h-413v162h-135l-43 -162h-132l186 712h537v-129h-283v-144h260v-129h-260v-181h283v-129zM302 583l-78 -292h103v292h-25z" />
    <glyph glyph-name="Ccedilla" unicode="&#xc7;" horiz-adv-x="534" 
d="M491 216q0 -36 -10.5 -72.5t-33 -72t-67 -58t-104.5 -22.5q-48 0 -86.5 15t-61.5 38t-38.5 52t-21.5 54.5t-6 47.5v318q0 29 10 60t32.5 64.5t67 55t105.5 21.5q47 0 85.5 -16t61.5 -40.5t39 -55.5t22 -58t6 -51h-131q0 53 -26.5 73t-56.5 20q-13 0 -25.5 -2.5t-27.5 -10
t-24 -23.5t-9 -39v-316q0 -44 27.5 -60.5t58.5 -16.5q12 0 24.5 3.5t26.5 12.5t23 29.5t9 49.5h131zM331 -24l-73 -188h-124l89 188h108z" />
    <glyph glyph-name="Egrave" unicode="&#xc8;" horiz-adv-x="526" 
d="M484 0h-412v712h412v-129h-283v-144h262v-129h-262v-181h283v-129zM374 760h-110l-114 191h131z" />
    <glyph glyph-name="Eacute" unicode="&#xc9;" horiz-adv-x="526" 
d="M484 0h-412v712h412v-129h-283v-144h262v-129h-262v-181h283v-129zM419 951l-116 -191h-107l92 191h131z" />
    <glyph glyph-name="Ecircumflex" unicode="&#xca;" horiz-adv-x="526" 
d="M484 0h-412v712h412v-129h-283v-144h262v-129h-262v-181h283v-129zM448 772h-119l-56 57l-56 -57h-121l138 171h78z" />
    <glyph glyph-name="Edieresis" unicode="&#xcb;" horiz-adv-x="526" 
d="M484 0h-412v712h412v-129h-283v-144h262v-129h-262v-181h283v-129zM428 771h-126v141h126v-141zM239 771h-125v141h125v-141z" />
    <glyph glyph-name="Igrave" unicode="&#xcc;" horiz-adv-x="274" 
d="M72 712h130v-712h-130v712zM196 760h-110l-114 191h131z" />
    <glyph glyph-name="Iacute" unicode="&#xcd;" horiz-adv-x="275" 
d="M72 712h130v-712h-130v712zM297 951l-116 -191h-107l92 191h131z" />
    <glyph glyph-name="Icircumflex" unicode="&#xce;" horiz-adv-x="275" 
d="M73 712h130v-712h-130v712zM315 772h-119l-56 57l-56 -57h-121l138 171h78z" />
    <glyph glyph-name="Idieresis" unicode="&#xcf;" horiz-adv-x="274" 
d="M72 712h130v-712h-130v712zM292 771h-126v141h126v-141zM103 771h-125v141h125v-141z" />
    <glyph glyph-name="Eth" unicode="&#xd0;" horiz-adv-x="616" 
d="M548 204q0 -23 -4.5 -47t-18 -53.5t-35 -51.5t-59 -37t-85.5 -15h-227v299h-51v125h51v289h224q60 0 103.5 -22t64 -56t29 -65t8.5 -60v-306zM418 205v302q0 44 -23.5 60.5t-51.5 16.5h-94v-160h102v-125h-102v-170h95q28 0 51 16t23 60z" />
    <glyph glyph-name="Ntilde" unicode="&#xd1;" horiz-adv-x="576" 
d="M504 0h-134l-168 394v-394h-130v712h132l172 -402v402h128v-712zM400 903l72 -72q-74 -71 -122 -71q-28 0 -61 20q-34 19 -52 19q-12 0 -51 -37l-72 70q72 72 122 72q19 0 61 -20q34 -19 52 -19q12 0 51 38z" />
    <glyph glyph-name="Ograve" unicode="&#xd2;" 
d="M491 197q0 -29 -10.5 -61.5t-33 -66.5t-67 -56t-104.5 -22q-48 0 -86.5 15t-61.5 38t-38.5 52t-21.5 54.5t-6 47.5v318q0 29 10 60t32.5 64.5t67 55t105.5 21.5q58 0 102.5 -21.5t67 -55t33.5 -65.5t11 -60v-318zM360 198v316q0 23 -9 39t-23.5 23.5t-26.5 10t-24 2.5
q-13 0 -25.5 -2.5t-27.5 -10t-24 -23.5t-9 -39v-316q0 -44 27.5 -60.5t58.5 -16.5q17 0 33.5 4.5t33 23t16.5 49.5zM356 760h-110l-114 191h131z" />
    <glyph glyph-name="Oacute" unicode="&#xd3;" 
d="M491 197q0 -29 -10.5 -61.5t-33 -66.5t-67 -56t-104.5 -22q-48 0 -86.5 15t-61.5 38t-38.5 52t-21.5 54.5t-6 47.5v318q0 29 10 60t32.5 64.5t67 55t105.5 21.5q58 0 102.5 -21.5t67 -55t33.5 -65.5t11 -60v-318zM360 198v316q0 23 -9 39t-23.5 23.5t-26.5 10t-24 2.5
q-13 0 -25.5 -2.5t-27.5 -10t-24 -23.5t-9 -39v-316q0 -44 27.5 -60.5t58.5 -16.5q17 0 33.5 4.5t33 23t16.5 49.5zM426 951l-116 -191h-107l92 191h131z" />
    <glyph glyph-name="Ocircumflex" unicode="&#xd4;" 
d="M491 197q0 -29 -10.5 -61.5t-33 -66.5t-67 -56t-104.5 -22q-48 0 -86.5 15t-61.5 38t-38.5 52t-21.5 54.5t-6 47.5v318q0 29 10 60t32.5 64.5t67 55t105.5 21.5q58 0 102.5 -21.5t67 -55t33.5 -65.5t11 -60v-318zM360 198v316q0 23 -9 39t-23.5 23.5t-26.5 10t-24 2.5
q-13 0 -25.5 -2.5t-27.5 -10t-24 -23.5t-9 -39v-316q0 -44 27.5 -60.5t58.5 -16.5q17 0 33.5 4.5t33 23t16.5 49.5zM454 772h-119l-56 57l-56 -57h-121l138 171h78z" />
    <glyph glyph-name="Otilde" unicode="&#xd5;" 
d="M491 197q0 -29 -10.5 -61.5t-33 -66.5t-67 -56t-104.5 -22q-48 0 -86.5 15t-61.5 38t-38.5 52t-21.5 54.5t-6 47.5v318q0 29 10 60t32.5 64.5t67 55t105.5 21.5q58 0 102.5 -21.5t67 -55t33.5 -65.5t11 -60v-318zM360 198v316q0 23 -9 39t-23.5 23.5t-26.5 10t-24 2.5
q-13 0 -25.5 -2.5t-27.5 -10t-24 -23.5t-9 -39v-316q0 -44 27.5 -60.5t58.5 -16.5q17 0 33.5 4.5t33 23t16.5 49.5zM383 902l72 -72q-74 -71 -122 -71q-28 0 -61 20q-34 19 -52 19q-12 0 -51 -37l-72 70q72 72 122 72q19 0 61 -20q34 -19 52 -19q12 0 51 38z" />
    <glyph glyph-name="Odieresis" unicode="&#xd6;" 
d="M491 197q0 -29 -10.5 -61.5t-33 -66.5t-67 -56t-104.5 -22q-48 0 -86.5 15t-61.5 38t-38.5 52t-21.5 54.5t-6 47.5v318q0 29 10 60t32.5 64.5t67 55t105.5 21.5q58 0 102.5 -21.5t67 -55t33.5 -65.5t11 -60v-318zM360 198v316q0 23 -9 39t-23.5 23.5t-26.5 10t-24 2.5
q-13 0 -25.5 -2.5t-27.5 -10t-24 -23.5t-9 -39v-316q0 -44 27.5 -60.5t58.5 -16.5q17 0 33.5 4.5t33 23t16.5 49.5zM431 771h-126v141h126v-141zM242 771h-125v141h125v-141z" />
    <glyph glyph-name="multiply" unicode="&#xd7;" horiz-adv-x="586" 
d="M485 147l-74 -71l-119 118l-118 -118l-73 72l119 119l-119 120l73 73l118 -120l119 120l73 -73l-119 -120z" />
    <glyph glyph-name="Oslash" unicode="&#xd8;" 
d="M450 763l-31 -94q36 -32 54 -75t18 -79v-318q0 -29 -10.5 -61.5t-33 -66.5t-67 -56t-104.5 -22q-40 0 -78 12l-17 -51h-73l28 85q-38 31 -56 76.5t-18 84.5v318q0 29 10 60t32.5 64.5t67 55t105.5 21.5q45 0 82 -14l20 60h71zM191 514v-314l127 381q-20 8 -41 8
q-13 0 -25.5 -2.5t-27.5 -10t-24 -23.5t-9 -39zM360 198v293l-121 -364q17 -6 38 -6q17 0 33.5 4.5t33 23t16.5 49.5z" />
    <glyph glyph-name="Ugrave" unicode="&#xd9;" 
d="M491 197q0 -31 -10 -63.5t-32 -66t-66.5 -55t-105.5 -21.5t-105.5 21.5t-67 55.5t-32.5 66.5t-10 63.5v514h130v-514q0 -44 27 -60.5t58 -16.5q18 0 34.5 4.5t33 23t16.5 49.5v514h130v-515zM365 760h-110l-114 191h131z" />
    <glyph glyph-name="Uacute" unicode="&#xda;" 
d="M491 197q0 -31 -10 -63.5t-32 -66t-66.5 -55t-105.5 -21.5t-105.5 21.5t-67 55.5t-32.5 66.5t-10 63.5v514h130v-514q0 -44 27 -60.5t58 -16.5q18 0 34.5 4.5t33 23t16.5 49.5v514h130v-515zM404 951l-116 -191h-107l92 191h131z" />
    <glyph glyph-name="Ucircumflex" unicode="&#xdb;" 
d="M491 197q0 -31 -10 -63.5t-32 -66t-66.5 -55t-105.5 -21.5t-105.5 21.5t-67 55.5t-32.5 66.5t-10 63.5v514h130v-514q0 -44 27 -60.5t58 -16.5q18 0 34.5 4.5t33 23t16.5 49.5v514h130v-515zM450 772h-119l-56 57l-56 -57h-121l138 171h78z" />
    <glyph glyph-name="Udieresis" unicode="&#xdc;" 
d="M491 197q0 -31 -10 -63.5t-32 -66t-66.5 -55t-105.5 -21.5t-105.5 21.5t-67 55.5t-32.5 66.5t-10 63.5v514h130v-514q0 -44 27 -60.5t58 -16.5q18 0 34.5 4.5t33 23t16.5 49.5v514h130v-515zM433 771h-126v141h126v-141zM244 771h-125v141h125v-141z" />
    <glyph glyph-name="Yacute" unicode="&#xdd;" horiz-adv-x="540" 
d="M522 712l-187 -454v-258h-130v260l-187 452h142l110 -275l111 275h141zM382 951l-116 -191h-107l92 191h131z" />
    <glyph glyph-name="Thorn" unicode="&#xde;" horiz-adv-x="575" 
d="M72 712h129v-143h112q93 0 149 -57.5t56 -152.5q0 -96 -55.5 -154t-149.5 -58h-112v-147h-129v712zM313 441h-112v-166h112q33 0 55.5 19t22.5 65q0 39 -20.5 60.5t-57.5 21.5z" />
    <glyph glyph-name="germandbls" unicode="&#xdf;" horiz-adv-x="560" 
d="M245 130h53q29 0 51.5 16t22.5 59v45q0 76 -65 76h-62v129h61q43 0 43 57q0 43 -22 58.5t-49 15.5q-76 0 -76 -74v-512h-130v515q0 23 4.5 46.5t18.5 52.5t36 50.5t60 36.5t87 15q59 0 102 -21.5t63.5 -55.5t29 -65t8.5 -61q0 -68 -43 -114q34 -27 49.5 -69.5t15.5 -76.5
v-48q0 -23 -4.5 -47.5t-18 -53.5t-35 -51.5t-59.5 -37.5t-86 -15h-55v130z" />
    <glyph glyph-name="agrave" unicode="&#xe0;" horiz-adv-x="571" 
d="M554 0h-133l-42 163h-186l-42 -163h-134l187 712h160zM347 291l-60 228l-63 -228h123zM358 760h-110l-114 191h131z" />
    <glyph glyph-name="aacute" unicode="&#xe1;" horiz-adv-x="571" 
d="M554 0h-133l-42 163h-186l-42 -163h-134l187 712h160zM347 291l-60 228l-63 -228h123zM438 951l-116 -191h-107l92 191h131z" />
    <glyph glyph-name="acircumflex" unicode="&#xe2;" horiz-adv-x="571" 
d="M554 0h-133l-42 163h-186l-42 -163h-134l187 712h160zM347 291l-60 228l-63 -228h123zM463 772h-119l-56 57l-56 -57h-121l138 171h78z" />
    <glyph glyph-name="atilde" unicode="&#xe3;" horiz-adv-x="571" 
d="M554 0h-133l-42 163h-186l-42 -163h-134l187 712h160zM347 291l-60 228l-63 -228h123zM394 903l72 -72q-74 -71 -122 -71q-28 0 -61 20q-34 19 -52 19q-12 0 -51 -37l-72 70q72 72 122 72q19 0 61 -20q34 -19 52 -19q12 0 51 38z" />
    <glyph glyph-name="adieresis" unicode="&#xe4;" horiz-adv-x="571" 
d="M554 0h-133l-42 163h-186l-42 -163h-134l187 712h160zM347 291l-60 228l-63 -228h123zM444 771h-126v141h126v-141zM255 771h-125v141h125v-141z" />
    <glyph glyph-name="aring" unicode="&#xe5;" horiz-adv-x="571" 
d="M554 0h-133l-42 163h-186l-42 -163h-134l187 712h160zM347 291l-60 228l-63 -228h123zM406 858q0 -48 -34.5 -83.5t-84.5 -35.5q-48 0 -83 35.5t-35 83.5q0 49 35 84t83 35q50 0 84.5 -34.5t34.5 -84.5zM325 858q0 15 -11 26t-27 11q-15 0 -26 -11t-11 -26t11 -26t26 -11
q16 0 27 11t11 26z" />
    <glyph glyph-name="ae" unicode="&#xe6;" horiz-adv-x="782" 
d="M740 0h-413v162h-135l-43 -162h-132l186 712h537v-129h-283v-144h260v-129h-260v-181h283v-129zM302 583l-78 -292h103v292h-25z" />
    <glyph glyph-name="ccedilla" unicode="&#xe7;" horiz-adv-x="534" 
d="M491 216q0 -36 -10.5 -72.5t-33 -72t-67 -58t-104.5 -22.5q-48 0 -86.5 15t-61.5 38t-38.5 52t-21.5 54.5t-6 47.5v318q0 29 10 60t32.5 64.5t67 55t105.5 21.5q47 0 85.5 -16t61.5 -40.5t39 -55.5t22 -58t6 -51h-131q0 53 -26.5 73t-56.5 20q-13 0 -25.5 -2.5t-27.5 -10
t-24 -23.5t-9 -39v-316q0 -44 27.5 -60.5t58.5 -16.5q12 0 24.5 3.5t26.5 12.5t23 29.5t9 49.5h131zM331 -24l-73 -188h-124l89 188h108z" />
    <glyph glyph-name="egrave" unicode="&#xe8;" horiz-adv-x="526" 
d="M484 0h-412v712h412v-129h-283v-144h262v-129h-262v-181h283v-129zM370 760h-110l-114 191h131z" />
    <glyph glyph-name="eacute" unicode="&#xe9;" horiz-adv-x="526" 
d="M484 0h-412v712h412v-129h-283v-144h262v-129h-262v-181h283v-129zM419 951l-116 -191h-107l92 191h131z" />
    <glyph glyph-name="ecircumflex" unicode="&#xea;" horiz-adv-x="526" 
d="M484 0h-412v712h412v-129h-283v-144h262v-129h-262v-181h283v-129zM454 772h-119l-56 57l-56 -57h-121l138 171h78z" />
    <glyph glyph-name="edieresis" unicode="&#xeb;" horiz-adv-x="526" 
d="M484 0h-412v712h412v-129h-283v-144h262v-129h-262v-181h283v-129zM441 771h-126v141h126v-141zM252 771h-125v141h125v-141z" />
    <glyph glyph-name="igrave" unicode="&#xec;" horiz-adv-x="275" 
d="M199 760h-110l-114 191h131zM72 712h130v-712h-130v712z" />
    <glyph glyph-name="iacute" unicode="&#xed;" horiz-adv-x="275" 
d="M297 951l-116 -191h-107l92 191h131zM72 712h130v-712h-130v712z" />
    <glyph glyph-name="icircumflex" unicode="&#xee;" horiz-adv-x="275" 
d="M314 772h-119l-56 57l-56 -57h-121l138 171h78zM72 712h130v-712h-130v712z" />
    <glyph glyph-name="idieresis" unicode="&#xef;" horiz-adv-x="275" 
d="M293 771h-126v141h126v-141zM104 771h-125v141h125v-141zM72 712h130v-712h-130v712z" />
    <glyph glyph-name="eth" unicode="&#xf0;" horiz-adv-x="480" 
d="M352 188v69q0 29 -15.5 46.5t-31 22t-32.5 4.5t-33 -4.5t-32 -22t-16 -46.5v-69q0 -41 26 -57t55 -16q28 0 53.5 16t25.5 57zM476 491v-307q0 -27 -9.5 -57.5t-31 -62.5t-63.5 -52.5t-99 -20.5t-99.5 21t-64 53.5t-31.5 63t-10 57.5v72q0 21 5.5 44.5t20 51t36 49t58 36
t82.5 14.5q42 0 82 -19v55q0 29 -20 46.5t-41.5 22t-46.5 4.5v124q65 0 114 -21t72.5 -53.5t34.5 -62.5t11 -58z" />
    <glyph glyph-name="ntilde" unicode="&#xf1;" horiz-adv-x="576" 
d="M504 0h-134l-168 394v-394h-130v712h132l172 -402v402h128v-712zM400 903l72 -72q-74 -71 -122 -71q-28 0 -61 20q-34 19 -52 19q-12 0 -51 -37l-72 70q72 72 122 72q19 0 61 -20q34 -19 52 -19q12 0 51 38z" />
    <glyph glyph-name="ograve" unicode="&#xf2;" 
d="M491 197q0 -29 -10.5 -61.5t-33 -66.5t-67 -56t-104.5 -22q-48 0 -86.5 15t-61.5 38t-38.5 52t-21.5 54.5t-6 47.5v318q0 29 10 60t32.5 64.5t67 55t105.5 21.5q58 0 102.5 -21.5t67 -55t33.5 -65.5t11 -60v-318zM360 198v316q0 23 -9 39t-23.5 23.5t-26.5 10t-24 2.5
q-13 0 -25.5 -2.5t-27.5 -10t-24 -23.5t-9 -39v-316q0 -44 27.5 -60.5t58.5 -16.5q17 0 33.5 4.5t33 23t16.5 49.5zM357 760h-110l-114 191h131z" />
    <glyph glyph-name="oacute" unicode="&#xf3;" 
d="M491 197q0 -29 -10.5 -61.5t-33 -66.5t-67 -56t-104.5 -22q-48 0 -86.5 15t-61.5 38t-38.5 52t-21.5 54.5t-6 47.5v318q0 29 10 60t32.5 64.5t67 55t105.5 21.5q58 0 102.5 -21.5t67 -55t33.5 -65.5t11 -60v-318zM360 198v316q0 23 -9 39t-23.5 23.5t-26.5 10t-24 2.5
q-13 0 -25.5 -2.5t-27.5 -10t-24 -23.5t-9 -39v-316q0 -44 27.5 -60.5t58.5 -16.5q17 0 33.5 4.5t33 23t16.5 49.5zM419 951l-116 -191h-107l92 191h131z" />
    <glyph glyph-name="ocircumflex" unicode="&#xf4;" 
d="M491 197q0 -29 -10.5 -61.5t-33 -66.5t-67 -56t-104.5 -22q-48 0 -86.5 15t-61.5 38t-38.5 52t-21.5 54.5t-6 47.5v318q0 29 10 60t32.5 64.5t67 55t105.5 21.5q58 0 102.5 -21.5t67 -55t33.5 -65.5t11 -60v-318zM360 198v316q0 23 -9 39t-23.5 23.5t-26.5 10t-24 2.5
q-13 0 -25.5 -2.5t-27.5 -10t-24 -23.5t-9 -39v-316q0 -44 27.5 -60.5t58.5 -16.5q17 0 33.5 4.5t33 23t16.5 49.5zM451 772h-119l-56 57l-56 -57h-121l138 171h78z" />
    <glyph glyph-name="otilde" unicode="&#xf5;" 
d="M491 197q0 -29 -10.5 -61.5t-33 -66.5t-67 -56t-104.5 -22q-48 0 -86.5 15t-61.5 38t-38.5 52t-21.5 54.5t-6 47.5v318q0 29 10 60t32.5 64.5t67 55t105.5 21.5q58 0 102.5 -21.5t67 -55t33.5 -65.5t11 -60v-318zM360 198v316q0 23 -9 39t-23.5 23.5t-26.5 10t-24 2.5
q-13 0 -25.5 -2.5t-27.5 -10t-24 -23.5t-9 -39v-316q0 -44 27.5 -60.5t58.5 -16.5q17 0 33.5 4.5t33 23t16.5 49.5zM381 902l72 -72q-74 -71 -122 -71q-28 0 -61 20q-34 19 -52 19q-12 0 -51 -37l-72 70q72 72 122 72q19 0 61 -20q34 -19 52 -19q12 0 51 38z" />
    <glyph glyph-name="odieresis" unicode="&#xf6;" 
d="M491 197q0 -29 -10.5 -61.5t-33 -66.5t-67 -56t-104.5 -22q-48 0 -86.5 15t-61.5 38t-38.5 52t-21.5 54.5t-6 47.5v318q0 29 10 60t32.5 64.5t67 55t105.5 21.5q58 0 102.5 -21.5t67 -55t33.5 -65.5t11 -60v-318zM360 198v316q0 23 -9 39t-23.5 23.5t-26.5 10t-24 2.5
q-13 0 -25.5 -2.5t-27.5 -10t-24 -23.5t-9 -39v-316q0 -44 27.5 -60.5t58.5 -16.5q17 0 33.5 4.5t33 23t16.5 49.5zM430 771h-126v141h126v-141zM241 771h-125v141h125v-141z" />
    <glyph glyph-name="divide" unicode="&#xf7;" horiz-adv-x="526" 
d="M457 176h-388v86h388v-86zM334 0h-141v141h141v-141zM334 291h-141v141h141v-141z" />
    <glyph glyph-name="oslash" unicode="&#xf8;" 
d="M450 763l-31 -94q36 -32 54 -75t18 -79v-318q0 -29 -10.5 -61.5t-33 -66.5t-67 -56t-104.5 -22q-40 0 -78 12l-17 -51h-73l28 85q-38 31 -56 76.5t-18 84.5v318q0 29 10 60t32.5 64.5t67 55t105.5 21.5q45 0 82 -14l20 60h71zM191 514v-314l127 381q-20 8 -41 8
q-13 0 -25.5 -2.5t-27.5 -10t-24 -23.5t-9 -39zM360 198v293l-121 -364q17 -6 38 -6q17 0 33.5 4.5t33 23t16.5 49.5z" />
    <glyph glyph-name="ugrave" unicode="&#xf9;" 
d="M491 197q0 -31 -10 -63.5t-32 -66t-66.5 -55t-105.5 -21.5t-105.5 21.5t-67 55.5t-32.5 66.5t-10 63.5v514h130v-514q0 -44 27 -60.5t58 -16.5q18 0 34.5 4.5t33 23t16.5 49.5v514h130v-515zM366 760h-110l-114 191h131z" />
    <glyph glyph-name="uacute" unicode="&#xfa;" 
d="M491 197q0 -31 -10 -63.5t-32 -66t-66.5 -55t-105.5 -21.5t-105.5 21.5t-67 55.5t-32.5 66.5t-10 63.5v514h130v-514q0 -44 27 -60.5t58 -16.5q18 0 34.5 4.5t33 23t16.5 49.5v514h130v-515zM409 951l-116 -191h-107l92 191h131z" />
    <glyph glyph-name="ucircumflex" unicode="&#xfb;" 
d="M491 197q0 -31 -10 -63.5t-32 -66t-66.5 -55t-105.5 -21.5t-105.5 21.5t-67 55.5t-32.5 66.5t-10 63.5v514h130v-514q0 -44 27 -60.5t58 -16.5q18 0 34.5 4.5t33 23t16.5 49.5v514h130v-515zM449 772h-119l-56 57l-56 -57h-121l138 171h78z" />
    <glyph glyph-name="udieresis" unicode="&#xfc;" 
d="M491 197q0 -31 -10 -63.5t-32 -66t-66.5 -55t-105.5 -21.5t-105.5 21.5t-67 55.5t-32.5 66.5t-10 63.5v514h130v-514q0 -44 27 -60.5t58 -16.5q18 0 34.5 4.5t33 23t16.5 49.5v514h130v-515zM431 771h-126v141h126v-141zM242 771h-125v141h125v-141z" />
    <glyph glyph-name="yacute" unicode="&#xfd;" horiz-adv-x="540" 
d="M522 712l-187 -454v-258h-130v260l-187 452h142l110 -275l111 275h141zM383 951l-116 -191h-107l92 191h131z" />
    <glyph glyph-name="thorn" unicode="&#xfe;" horiz-adv-x="532" 
d="M470 188q0 -89 -54 -143t-144 -54q-41 0 -75 21v-221h-125v888h125v-169q37 20 75 20q92 0 145 -52.5t53 -143.5v-146zM346 188v146q0 72 -74 72q-35 0 -55 -19t-20 -53v-146q0 -72 75 -72q35 0 54.5 19t19.5 53z" />
    <glyph glyph-name="ydieresis" unicode="&#xff;" horiz-adv-x="540" 
d="M522 712l-187 -454v-258h-130v260l-187 452h142l110 -275l111 275h141zM428 771h-126v141h126v-141zM239 771h-125v141h125v-141z" />
    <glyph glyph-name="Amacron" unicode="&#x100;" horiz-adv-x="571" 
d="M554 0h-133l-42 163h-186l-42 -163h-134l187 712h160zM347 291l-60 228l-63 -228h123zM448 771h-321v107h321v-107z" />
    <glyph glyph-name="amacron" unicode="&#x101;" horiz-adv-x="571" 
d="M554 0h-133l-42 163h-186l-42 -163h-134l187 712h160zM347 291l-60 228l-63 -228h123zM449 771h-321v107h321v-107z" />
    <glyph glyph-name="Abreve" unicode="&#x102;" horiz-adv-x="571" 
d="M554 0h-133l-42 163h-186l-42 -163h-134l187 712h160zM347 291l-60 228l-63 -228h123zM471 931q-11 -93 -56 -132t-120 -39q-73 0 -120 42.5t-56 128.5h105q5 -34 24.5 -54t46.5 -20q28 0 46.5 19.5t24.5 54.5h105z" />
    <glyph glyph-name="abreve" unicode="&#x103;" horiz-adv-x="571" 
d="M554 0h-133l-42 163h-186l-42 -163h-134l187 712h160zM347 291l-60 228l-63 -228h123zM471 931q-11 -93 -56 -132t-120 -39q-73 0 -120 42.5t-56 128.5h105q5 -34 24.5 -54t46.5 -20q28 0 46.5 19.5t24.5 54.5h105z" />
    <glyph glyph-name="Aogonek" unicode="&#x104;" horiz-adv-x="608" 
d="M554 0h-133l-42 163h-186l-42 -163h-134l187 712h160zM347 291l-60 228l-63 -228h123zM668 -213h-135l-100 188h121z" />
    <glyph glyph-name="aogonek" unicode="&#x105;" horiz-adv-x="612" 
d="M554 0h-133l-42 163h-186l-42 -163h-134l187 712h160zM347 291l-60 228l-63 -228h123zM672 -213h-135l-100 188h121z" />
    <glyph glyph-name="Cacute" unicode="&#x106;" horiz-adv-x="534" 
d="M491 216q0 -36 -10.5 -72.5t-33 -72t-67 -58t-104.5 -22.5q-48 0 -86.5 15t-61.5 38t-38.5 52t-21.5 54.5t-6 47.5v318q0 29 10 60t32.5 64.5t67 55t105.5 21.5q47 0 85.5 -16t61.5 -40.5t39 -55.5t22 -58t6 -51h-131q0 53 -26.5 73t-56.5 20q-13 0 -25.5 -2.5t-27.5 -10
t-24 -23.5t-9 -39v-316q0 -44 27.5 -60.5t58.5 -16.5q12 0 24.5 3.5t26.5 12.5t23 29.5t9 49.5h131zM422 951l-116 -191h-107l92 191h131z" />
    <glyph glyph-name="cacute" unicode="&#x107;" horiz-adv-x="534" 
d="M491 216q0 -36 -10.5 -72.5t-33 -72t-67 -58t-104.5 -22.5q-48 0 -86.5 15t-61.5 38t-38.5 52t-21.5 54.5t-6 47.5v318q0 29 10 60t32.5 64.5t67 55t105.5 21.5q47 0 85.5 -16t61.5 -40.5t39 -55.5t22 -58t6 -51h-131q0 53 -26.5 73t-56.5 20q-13 0 -25.5 -2.5t-27.5 -10
t-24 -23.5t-9 -39v-316q0 -44 27.5 -60.5t58.5 -16.5q12 0 24.5 3.5t26.5 12.5t23 29.5t9 49.5h131zM422 951l-116 -191h-107l92 191h131z" />
    <glyph glyph-name="Ccircumflex" unicode="&#x108;" horiz-adv-x="534" 
d="M491 216q0 -36 -10.5 -72.5t-33 -72t-67 -58t-104.5 -22.5q-48 0 -86.5 15t-61.5 38t-38.5 52t-21.5 54.5t-6 47.5v318q0 29 10 60t32.5 64.5t67 55t105.5 21.5q47 0 85.5 -16t61.5 -40.5t39 -55.5t22 -58t6 -51h-131q0 53 -26.5 73t-56.5 20q-13 0 -25.5 -2.5t-27.5 -10
t-24 -23.5t-9 -39v-316q0 -44 27.5 -60.5t58.5 -16.5q12 0 24.5 3.5t26.5 12.5t23 29.5t9 49.5h131zM451 772h-119l-56 57l-56 -57h-121l138 171h78z" />
    <glyph glyph-name="ccircumflex" unicode="&#x109;" horiz-adv-x="534" 
d="M491 216q0 -36 -10.5 -72.5t-33 -72t-67 -58t-104.5 -22.5q-48 0 -86.5 15t-61.5 38t-38.5 52t-21.5 54.5t-6 47.5v318q0 29 10 60t32.5 64.5t67 55t105.5 21.5q47 0 85.5 -16t61.5 -40.5t39 -55.5t22 -58t6 -51h-131q0 53 -26.5 73t-56.5 20q-13 0 -25.5 -2.5t-27.5 -10
t-24 -23.5t-9 -39v-316q0 -44 27.5 -60.5t58.5 -16.5q12 0 24.5 3.5t26.5 12.5t23 29.5t9 49.5h131zM449 772h-119l-56 57l-56 -57h-121l138 171h78z" />
    <glyph glyph-name="Cdotaccent" unicode="&#x10a;" horiz-adv-x="534" 
d="M491 216q0 -36 -10.5 -72.5t-33 -72t-67 -58t-104.5 -22.5q-48 0 -86.5 15t-61.5 38t-38.5 52t-21.5 54.5t-6 47.5v318q0 29 10 60t32.5 64.5t67 55t105.5 21.5q47 0 85.5 -16t61.5 -40.5t39 -55.5t22 -58t6 -51h-131q0 53 -26.5 73t-56.5 20q-13 0 -25.5 -2.5t-27.5 -10
t-24 -23.5t-9 -39v-316q0 -44 27.5 -60.5t58.5 -16.5q12 0 24.5 3.5t26.5 12.5t23 29.5t9 49.5h131zM338 771h-127v122h127v-122z" />
    <glyph glyph-name="cdotaccent" unicode="&#x10b;" horiz-adv-x="534" 
d="M491 216q0 -36 -10.5 -72.5t-33 -72t-67 -58t-104.5 -22.5q-48 0 -86.5 15t-61.5 38t-38.5 52t-21.5 54.5t-6 47.5v318q0 29 10 60t32.5 64.5t67 55t105.5 21.5q47 0 85.5 -16t61.5 -40.5t39 -55.5t22 -58t6 -51h-131q0 53 -26.5 73t-56.5 20q-13 0 -25.5 -2.5t-27.5 -10
t-24 -23.5t-9 -39v-316q0 -44 27.5 -60.5t58.5 -16.5q12 0 24.5 3.5t26.5 12.5t23 29.5t9 49.5h131zM338 771h-127v122h127v-122z" />
    <glyph glyph-name="Ccaron" unicode="&#x10c;" horiz-adv-x="534" 
d="M491 216q0 -36 -10.5 -72.5t-33 -72t-67 -58t-104.5 -22.5q-48 0 -86.5 15t-61.5 38t-38.5 52t-21.5 54.5t-6 47.5v318q0 29 10 60t32.5 64.5t67 55t105.5 21.5q47 0 85.5 -16t61.5 -40.5t39 -55.5t22 -58t6 -51h-131q0 53 -26.5 73t-56.5 20q-13 0 -25.5 -2.5t-27.5 -10
t-24 -23.5t-9 -39v-316q0 -44 27.5 -60.5t58.5 -16.5q12 0 24.5 3.5t26.5 12.5t23 29.5t9 49.5h131zM100 943h121l55 -56l56 56h120l-136 -171h-78z" />
    <glyph glyph-name="ccaron" unicode="&#x10d;" horiz-adv-x="529" 
d="M486 216q0 -36 -10.5 -72.5t-33 -72t-67 -58t-104.5 -22.5q-48 0 -86.5 15t-61.5 38t-38.5 52t-21.5 54.5t-6 47.5v318q0 29 10 60t32.5 64.5t67 55t105.5 21.5q47 0 85.5 -16t61.5 -40.5t39 -55.5t22 -58t6 -51h-131q0 53 -26.5 73t-56.5 20q-13 0 -25.5 -2.5t-27.5 -10
t-24 -23.5t-9 -39v-316q0 -44 27.5 -60.5t58.5 -16.5q12 0 24.5 3.5t26.5 12.5t23 29.5t9 49.5h131zM93 943h121l55 -56l17.5 17.5l21.5 21.5l17 17h120l-136 -171h-78z" />
    <glyph glyph-name="Dcaron" unicode="&#x10e;" horiz-adv-x="561" 
d="M499 204q0 -23 -4.5 -47t-18 -53.5t-35 -51.5t-58.5 -37t-85 -15h-226v713h222q60 0 103.5 -22t64 -56t29 -65t8.5 -60v-306zM371 205v302q0 44 -23.5 60.5t-53.5 16.5h-93v-455h95q29 0 52 16t23 60zM93 943h121l55 -56l17.5 17.5l21.5 21.5l17 17h120l-136 -171h-78z
" />
    <glyph glyph-name="dcaron" unicode="&#x10f;" horiz-adv-x="762" 
d="M499 204q0 -23 -4.5 -47t-18 -53.5t-35 -51.5t-58.5 -37t-85 -15h-226v713h222q60 0 103.5 -22t64 -56t29 -65t8.5 -60v-306zM371 205v302q0 44 -23.5 60.5t-53.5 16.5h-93v-455h95q29 0 52 16t23 60zM774 746l-153 -244h-84l90 244h147z" />
    <glyph glyph-name="Dcroat" unicode="&#x110;" horiz-adv-x="604" 
d="M542 204q0 -23 -4.5 -47t-18 -53.5t-35 -51.5t-59 -37t-85.5 -15h-227v299h-51v125h51v289h224q60 0 103.5 -22t64 -56t29 -65t8.5 -60v-306zM412 205v302q0 44 -23.5 60.5t-51.5 16.5h-94v-160h102v-125h-102v-170h95q28 0 51 16t23 60z" />
    <glyph glyph-name="dcroat" unicode="&#x111;" horiz-adv-x="604" 
d="M542 204q0 -23 -4.5 -47t-18 -53.5t-35 -51.5t-59 -37t-85.5 -15h-227v299h-51v125h51v289h224q60 0 103.5 -22t64 -56t29 -65t8.5 -60v-306zM412 205v302q0 44 -23.5 60.5t-51.5 16.5h-94v-160h102v-125h-102v-170h95q28 0 51 16t23 60z" />
    <glyph glyph-name="Emacron" unicode="&#x112;" horiz-adv-x="526" 
d="M484 0h-412v712h412v-129h-283v-144h262v-129h-262v-181h283v-129zM437 771h-321v107h321v-107z" />
    <glyph glyph-name="emacron" unicode="&#x113;" horiz-adv-x="526" 
d="M484 0h-412v712h412v-129h-283v-144h262v-129h-262v-181h283v-129zM437 771h-321v107h321v-107z" />
    <glyph glyph-name="Ebreve" unicode="&#x114;" horiz-adv-x="526" 
d="M484 0h-412v712h412v-129h-283v-144h262v-129h-262v-181h283v-129zM455 932q-11 -93 -56 -132t-120 -39q-73 0 -120 42.5t-56 128.5h105q5 -34 24.5 -54t46.5 -20q28 0 46.5 19.5t24.5 54.5h105z" />
    <glyph glyph-name="ebreve" unicode="&#x115;" horiz-adv-x="526" 
d="M484 0h-412v712h412v-129h-283v-144h262v-129h-262v-181h283v-129zM456 932q-11 -93 -56 -132t-120 -39q-73 0 -120 42.5t-56 128.5h105q5 -34 24.5 -54t46.5 -20q28 0 46.5 19.5t24.5 54.5h105z" />
    <glyph glyph-name="Edotaccent" unicode="&#x116;" horiz-adv-x="526" 
d="M484 0h-412v712h412v-129h-283v-144h262v-129h-262v-181h283v-129zM337 771h-127v122h127v-122z" />
    <glyph glyph-name="edotaccent" unicode="&#x117;" horiz-adv-x="526" 
d="M484 0h-412v712h412v-129h-283v-144h262v-129h-262v-181h283v-129zM337 771h-127v122h127v-122z" />
    <glyph glyph-name="Eogonek" unicode="&#x118;" horiz-adv-x="526" 
d="M484 0h-412v712h412v-129h-283v-144h262v-129h-262v-181h283v-129zM456 -212h-135l-100 188h121z" />
    <glyph glyph-name="eogonek" unicode="&#x119;" horiz-adv-x="526" 
d="M484 0h-412v712h412v-129h-283v-144h262v-129h-262v-181h283v-129zM455 -212h-135l-100 188h121z" />
    <glyph glyph-name="Ecaron" unicode="&#x11a;" horiz-adv-x="526" 
d="M484 0h-412v712h412v-129h-283v-144h262v-129h-262v-181h283v-129zM93 943h121l55 -56l17.5 17.5l21.5 21.5l17 17h120l-136 -171h-78z" />
    <glyph glyph-name="ecaron" unicode="&#x11b;" horiz-adv-x="526" 
d="M484 0h-412v712h412v-129h-283v-144h262v-129h-262v-181h283v-129zM93 943h121l55 -56l17.5 17.5l21.5 21.5l17 17h120l-136 -171h-78z" />
    <glyph glyph-name="Gcircumflex" unicode="&#x11c;" 
d="M491 197q0 -29 -11 -61.5t-33.5 -66.5t-67.5 -56t-104 -22t-103 22t-66.5 56.5t-33 67t-10.5 61.5v318q0 29 10 60t32.5 64.5t67 55t105.5 21.5q58 0 102.5 -23t67 -58.5t33.5 -71t11 -68.5h-131q0 52 -26.5 72t-56.5 20q-13 0 -25.5 -2.5t-27.5 -9.5t-24 -23t-9 -39
v-316q0 -24 9 -40t24 -23.5t27.5 -10t25.5 -2.5q18 0 34 4.5t32.5 22.5t16.5 49v91h-104v130h235v-222zM455 772h-119l-56 57l-56 -57h-121l138 171h78z" />
    <glyph glyph-name="gcircumflex" unicode="&#x11d;" 
d="M491 197q0 -29 -11 -61.5t-33.5 -66.5t-67.5 -56t-104 -22t-103 22t-66.5 56.5t-33 67t-10.5 61.5v318q0 29 10 60t32.5 64.5t67 55t105.5 21.5q58 0 102.5 -23t67 -58.5t33.5 -71t11 -68.5h-131q0 52 -26.5 72t-56.5 20q-13 0 -25.5 -2.5t-27.5 -9.5t-24 -23t-9 -39
v-316q0 -24 9 -40t24 -23.5t27.5 -10t25.5 -2.5q18 0 34 4.5t32.5 22.5t16.5 49v91h-104v130h235v-222zM453 772h-119l-56 57l-56 -57h-121l138 171h78z" />
    <glyph glyph-name="Gbreve" unicode="&#x11e;" 
d="M491 197q0 -29 -11 -61.5t-33.5 -66.5t-67.5 -56t-104 -22t-103 22t-66.5 56.5t-33 67t-10.5 61.5v318q0 29 10 60t32.5 64.5t67 55t105.5 21.5q58 0 102.5 -23t67 -58.5t33.5 -71t11 -68.5h-131q0 52 -26.5 72t-56.5 20q-13 0 -25.5 -2.5t-27.5 -9.5t-24 -23t-9 -39
v-316q0 -24 9 -40t24 -23.5t27.5 -10t25.5 -2.5q18 0 34 4.5t32.5 22.5t16.5 49v91h-104v130h235v-222zM448 931q-11 -93 -56 -132t-120 -39q-73 0 -120 42.5t-56 128.5h105q5 -34 24.5 -54t46.5 -20q28 0 46.5 19.5t24.5 54.5h105z" />
    <glyph glyph-name="gbreve" unicode="&#x11f;" 
d="M491 197q0 -29 -11 -61.5t-33.5 -66.5t-67.5 -56t-104 -22t-103 22t-66.5 56.5t-33 67t-10.5 61.5v318q0 29 10 60t32.5 64.5t67 55t105.5 21.5q58 0 102.5 -23t67 -58.5t33.5 -71t11 -68.5h-131q0 52 -26.5 72t-56.5 20q-13 0 -25.5 -2.5t-27.5 -9.5t-24 -23t-9 -39
v-316q0 -24 9 -40t24 -23.5t27.5 -10t25.5 -2.5q18 0 34 4.5t32.5 22.5t16.5 49v91h-104v130h235v-222zM449 931q-11 -93 -56 -132t-120 -39q-73 0 -120 42.5t-56 128.5h105q5 -34 24.5 -54t46.5 -20q28 0 46.5 19.5t24.5 54.5h105z" />
    <glyph glyph-name="Gdotaccent" unicode="&#x120;" 
d="M491 197q0 -29 -11 -61.5t-33.5 -66.5t-67.5 -56t-104 -22t-103 22t-66.5 56.5t-33 67t-10.5 61.5v318q0 29 10 60t32.5 64.5t67 55t105.5 21.5q58 0 102.5 -23t67 -58.5t33.5 -71t11 -68.5h-131q0 52 -26.5 72t-56.5 20q-13 0 -25.5 -2.5t-27.5 -9.5t-24 -23t-9 -39
v-316q0 -24 9 -40t24 -23.5t27.5 -10t25.5 -2.5q18 0 34 4.5t32.5 22.5t16.5 49v91h-104v130h235v-222zM344 771h-127v122h127v-122z" />
    <glyph glyph-name="gdotaccent" unicode="&#x121;" 
d="M491 197q0 -29 -11 -61.5t-33.5 -66.5t-67.5 -56t-104 -22t-103 22t-66.5 56.5t-33 67t-10.5 61.5v318q0 29 10 60t32.5 64.5t67 55t105.5 21.5q58 0 102.5 -23t67 -58.5t33.5 -71t11 -68.5h-131q0 52 -26.5 72t-56.5 20q-13 0 -25.5 -2.5t-27.5 -9.5t-24 -23t-9 -39
v-316q0 -24 9 -40t24 -23.5t27.5 -10t25.5 -2.5q18 0 34 4.5t32.5 22.5t16.5 49v91h-104v130h235v-222zM344 771h-127v122h127v-122z" />
    <glyph glyph-name="Gcommaaccent" unicode="&#x122;" 
d="M491 197q0 -29 -11 -61.5t-33.5 -66.5t-67.5 -56t-104 -22t-103 22t-66.5 56.5t-33 67t-10.5 61.5v318q0 29 10 60t32.5 64.5t67 55t105.5 21.5q58 0 102.5 -23t67 -58.5t33.5 -71t11 -68.5h-131q0 52 -26.5 72t-56.5 20q-13 0 -25.5 -2.5t-27.5 -9.5t-24 -23t-9 -39
v-316q0 -24 9 -40t24 -23.5t27.5 -10t25.5 -2.5q18 0 34 4.5t32.5 22.5t16.5 49v91h-104v130h235v-222zM336 -25l-73 -188h-124l89 188h108z" />
    <glyph glyph-name="gcommaaccent" unicode="&#x123;" 
d="M491 197q0 -29 -11 -61.5t-33.5 -66.5t-67.5 -56t-104 -22t-103 22t-66.5 56.5t-33 67t-10.5 61.5v318q0 29 10 60t32.5 64.5t67 55t105.5 21.5q58 0 102.5 -23t67 -58.5t33.5 -71t11 -68.5h-131q0 52 -26.5 72t-56.5 20q-13 0 -25.5 -2.5t-27.5 -9.5t-24 -23t-9 -39
v-316q0 -24 9 -40t24 -23.5t27.5 -10t25.5 -2.5q18 0 34 4.5t32.5 22.5t16.5 49v91h-104v130h235v-222zM337 -26l-73 -188h-124l89 188h108z" />
    <glyph glyph-name="Hcircumflex" unicode="&#x124;" horiz-adv-x="585" 
d="M513 0h-131v307h-180v-307h-130v712h130v-275h180v275h131v-712zM461 772h-119l-56 57l-56 -57h-121l138 171h78z" />
    <glyph glyph-name="hcircumflex" unicode="&#x125;" horiz-adv-x="585" 
d="M513 0h-131v307h-180v-307h-130v712h130v-275h180v275h131v-712zM461 772h-119l-56 57l-56 -57h-121l138 171h78z" />
    <glyph glyph-name="Hbar" unicode="&#x126;" horiz-adv-x="577" 
d="M511 0h-130v307h-181v-307h-130v544h-48v106h48v62h130v-62h181v62h130v-62h44v-106h-44v-544zM200 437h181v107h-181v-107z" />
    <glyph glyph-name="hbar" unicode="&#x127;" horiz-adv-x="577" 
d="M511 0h-130v307h-181v-307h-130v544h-48v106h48v62h130v-62h181v62h130v-62h44v-106h-44v-544zM200 437h181v107h-181v-107z" />
    <glyph glyph-name="Itilde" unicode="&#x128;" horiz-adv-x="276" 
d="M73 712h130v-712h-130v712zM247 903l72 -72q-74 -71 -122 -71q-28 0 -61 20q-34 19 -52 19q-12 0 -51 -37l-72 70q72 72 122 72q19 0 61 -20q34 -19 52 -19q12 0 51 38z" />
    <glyph glyph-name="itilde" unicode="&#x129;" horiz-adv-x="276" 
d="M73 712h130v-712h-130v712zM246 903l72 -72q-74 -71 -122 -71q-28 0 -61 20q-34 19 -52 19q-12 0 -51 -37l-72 70q72 72 122 72q19 0 61 -20q34 -19 52 -19q12 0 51 38z" />
    <glyph glyph-name="uni012A" unicode="&#x12a;" horiz-adv-x="274" 
d="M72 712h130v-712h-130v712zM297 771h-321v107h321v-107z" />
    <glyph glyph-name="imacron" unicode="&#x12b;" horiz-adv-x="274" 
d="M72 712h130v-712h-130v712zM297 771h-321v107h321v-107z" />
    <glyph glyph-name="Ibreve" unicode="&#x12c;" horiz-adv-x="274" 
d="M72 712h130v-712h-130v712zM313 931q-11 -93 -56 -132t-120 -39q-73 0 -120 42.5t-56 128.5h105q5 -34 24.5 -54t46.5 -20q28 0 46.5 19.5t24.5 54.5h105z" />
    <glyph glyph-name="uni012D" unicode="&#x12d;" horiz-adv-x="274" 
d="M72 712h130v-712h-130v712zM313 931q-11 -93 -56 -132t-120 -39q-73 0 -120 42.5t-56 128.5h105q5 -34 24.5 -54t46.5 -20q28 0 46.5 19.5t24.5 54.5h105z" />
    <glyph glyph-name="Iogonek" unicode="&#x12e;" horiz-adv-x="274" 
d="M72 712h130v-712h-130v712zM314 -212h-135l-100 188h121z" />
    <glyph glyph-name="iogonek" unicode="&#x12f;" horiz-adv-x="274" 
d="M72 712h130v-712h-130v712zM315 -212h-135l-100 188h121z" />
    <glyph glyph-name="Idotaccent" unicode="&#x130;" horiz-adv-x="274" 
d="M72 712h130v-712h-130v712zM201 771h-127v122h127v-122z" />
    <glyph glyph-name="dotlessi" unicode="&#x131;" horiz-adv-x="274" 
d="M72 712h130v-712h-130v712z" />
    <glyph glyph-name="IJ" unicode="&#x132;" horiz-adv-x="712" 
d="M71 712h130v-712h-130v712zM644 196q0 -97 -51.5 -151t-144.5 -54q-92 0 -144 61.5t-52 162.5h130q0 -94 67 -94q66 0 66 69v393h-195v129h324v-516z" />
    <glyph glyph-name="ij" unicode="&#x133;" horiz-adv-x="712" 
d="M71 712h130v-712h-130v712zM644 196q0 -97 -51.5 -151t-144.5 -54q-92 0 -144 61.5t-52 162.5h130q0 -94 67 -94q66 0 66 69v393h-195v129h324v-516z" />
    <glyph glyph-name="Jcircumflex" unicode="&#x134;" horiz-adv-x="490" 
d="M404 196q0 -97 -51.5 -151t-144.5 -54q-92 0 -144 61.5t-52 162.5h130q0 -94 67 -94q66 0 66 69v393h-195v129h324v-516zM404 772h-119l-56 57l-56 -57h-121l138 171h78z" />
    <glyph glyph-name="jcircumflex" unicode="&#x135;" horiz-adv-x="490" 
d="M404 196q0 -97 -51.5 -151t-144.5 -54q-92 0 -144 61.5t-52 162.5h130q0 -94 67 -94q66 0 66 69v393h-195v129h324v-516zM404 772h-119l-56 57l-56 -57h-121l138 171h78z" />
    <glyph glyph-name="Kcommaaccent" unicode="&#x136;" horiz-adv-x="555" 
d="M538 0h-154l-157 274l-25 -36v-238h-130v712h130v-258l175 258h152l-226 -323zM633 -212h-135l-100 188h121z" />
    <glyph glyph-name="kcommaaccent" unicode="&#x137;" horiz-adv-x="555" 
d="M538 0h-154l-157 274l-25 -36v-238h-130v712h130v-258l175 258h152l-226 -323zM633 -212h-135l-100 188h121z" />
    <glyph glyph-name="Lacute" unicode="&#x139;" horiz-adv-x="490" 
d="M483 0h-411v712h129v-583h282v-129zM300 951l-116 -191h-107l92 191h131z" />
    <glyph glyph-name="lacute" unicode="&#x13a;" horiz-adv-x="490" 
d="M483 0h-411v712h129v-583h282v-129zM297 951l-116 -191h-107l92 191h131z" />
    <glyph glyph-name="Lcommaaccent" unicode="&#x13b;" horiz-adv-x="490" 
d="M483 0h-411v712h129v-583h282v-129zM352 -24l-73 -188h-124l89 188h108z" />
    <glyph glyph-name="lcommaaccent" unicode="&#x13c;" horiz-adv-x="490" 
d="M483 0h-411v712h129v-583h282v-129zM352 -24l-73 -188h-124l89 188h108z" />
    <glyph glyph-name="Lcaron" unicode="&#x13d;" horiz-adv-x="490" 
d="M483 0h-411v712h129v-583h282v-129zM302 951l-116 -191h-107l92 191h131z" />
    <glyph glyph-name="lcaron" unicode="&#x13e;" horiz-adv-x="525" 
d="M483 0h-411v712h129v-583h282v-129zM513 743l-153 -244h-84l90 244h147z" />
    <glyph glyph-name="Ldot" unicode="&#x13f;" horiz-adv-x="490" 
d="M483 0h-411v712h129v-583h282v-129zM399 195h-138v140h138v-140z" />
    <glyph glyph-name="ldot" unicode="&#x140;" horiz-adv-x="490" 
d="M483 0h-411v712h129v-583h282v-129zM399 195h-138v140h138v-140z" />
    <glyph glyph-name="Lslash" unicode="&#x141;" horiz-adv-x="482" 
d="M475 0h-410v229h-50v126h50v357h130v-357h274v-126h-274v-100h280v-129z" />
    <glyph glyph-name="lslash" unicode="&#x142;" horiz-adv-x="482" 
d="M475 0h-410v229h-50v126h50v357h130v-357h274v-126h-274v-100h280v-129z" />
    <glyph glyph-name="Nacute" unicode="&#x143;" horiz-adv-x="576" 
d="M504 0h-134l-168 394v-394h-130v712h132l172 -402v402h128v-712zM426 951l-116 -191h-107l92 191h131z" />
    <glyph glyph-name="nacute" unicode="&#x144;" horiz-adv-x="576" 
d="M504 0h-134l-168 394v-394h-130v712h132l172 -402v402h128v-712zM426 951l-116 -191h-107l92 191h131z" />
    <glyph glyph-name="Ncommaaccent" unicode="&#x145;" horiz-adv-x="576" 
d="M504 0h-134l-168 394v-394h-130v712h132l172 -402v402h128v-712zM628 -212h-135l-100 188h121z" />
    <glyph glyph-name="ncommaaccent" unicode="&#x146;" horiz-adv-x="576" 
d="M504 0h-134l-168 394v-394h-130v712h132l172 -402v402h128v-712zM628 -212h-135l-100 188h121z" />
    <glyph glyph-name="Ncaron" unicode="&#x147;" horiz-adv-x="576" 
d="M504 0h-134l-168 394v-394h-130v712h132l172 -402v402h128v-712zM133 943h121l55 -56l56 56h120l-136 -171h-78z" />
    <glyph glyph-name="ncaron" unicode="&#x148;" horiz-adv-x="576" 
d="M504 0h-134l-168 394v-394h-130v712h132l172 -402v402h128v-712zM133 943h121l55 -56l56 56h120l-136 -171h-78z" />
    <glyph glyph-name="napostrophe" unicode="&#x149;" horiz-adv-x="839" 
d="M767 0h-134l-168 394v-394h-130v712h132l172 -402v402h128v-712zM309 749l-153 -244h-84l90 244h147z" />
    <glyph glyph-name="Eng" unicode="&#x14a;" horiz-adv-x="576" 
d="M290 -201v130q86 0 86 69v2h-6l-168 394v-394h-130v712h133l171 -402v402h128v-708q0 -97 -56 -151t-158 -54z" />
    <glyph glyph-name="eng" unicode="&#x14b;" horiz-adv-x="539" 
d="M471 -41q0 -76 -38.5 -113t-101.5 -37h-53v124h50q19 0 19 22v379q0 72 -66 72q-35 0 -59.5 -19.5t-24.5 -50.5v-336h-125v522h125v-9q37 17 84 17q93 0 141.5 -51.5t48.5 -144.5v-375z" />
    <glyph glyph-name="Omacron" unicode="&#x14c;" 
d="M491 197q0 -29 -10.5 -61.5t-33 -66.5t-67 -56t-104.5 -22q-48 0 -86.5 15t-61.5 38t-38.5 52t-21.5 54.5t-6 47.5v318q0 29 10 60t32.5 64.5t67 55t105.5 21.5q58 0 102.5 -21.5t67 -55t33.5 -65.5t11 -60v-318zM360 198v316q0 23 -9 39t-23.5 23.5t-26.5 10t-24 2.5
q-13 0 -25.5 -2.5t-27.5 -10t-24 -23.5t-9 -39v-316q0 -44 27.5 -60.5t58.5 -16.5q17 0 33.5 4.5t33 23t16.5 49.5zM439 771h-321v107h321v-107z" />
    <glyph glyph-name="omacron" unicode="&#x14d;" 
d="M491 197q0 -29 -10.5 -61.5t-33 -66.5t-67 -56t-104.5 -22q-48 0 -86.5 15t-61.5 38t-38.5 52t-21.5 54.5t-6 47.5v318q0 29 10 60t32.5 64.5t67 55t105.5 21.5q58 0 102.5 -21.5t67 -55t33.5 -65.5t11 -60v-318zM360 198v316q0 23 -9 39t-23.5 23.5t-26.5 10t-24 2.5
q-13 0 -25.5 -2.5t-27.5 -10t-24 -23.5t-9 -39v-316q0 -44 27.5 -60.5t58.5 -16.5q17 0 33.5 4.5t33 23t16.5 49.5zM439 771h-321v107h321v-107z" />
    <glyph glyph-name="Obreve" unicode="&#x14e;" 
d="M491 197q0 -29 -10.5 -61.5t-33 -66.5t-67 -56t-104.5 -22q-48 0 -86.5 15t-61.5 38t-38.5 52t-21.5 54.5t-6 47.5v318q0 29 10 60t32.5 64.5t67 55t105.5 21.5q58 0 102.5 -21.5t67 -55t33.5 -65.5t11 -60v-318zM360 198v316q0 23 -9 39t-23.5 23.5t-26.5 10t-24 2.5
q-13 0 -25.5 -2.5t-27.5 -10t-24 -23.5t-9 -39v-316q0 -44 27.5 -60.5t58.5 -16.5q17 0 33.5 4.5t33 23t16.5 49.5zM457 931q-11 -93 -56 -132t-120 -39q-73 0 -120 42.5t-56 128.5h105q5 -34 24.5 -54t46.5 -20q28 0 46.5 19.5t24.5 54.5h105z" />
    <glyph glyph-name="obreve" unicode="&#x14f;" 
d="M491 197q0 -29 -10.5 -61.5t-33 -66.5t-67 -56t-104.5 -22q-48 0 -86.5 15t-61.5 38t-38.5 52t-21.5 54.5t-6 47.5v318q0 29 10 60t32.5 64.5t67 55t105.5 21.5q58 0 102.5 -21.5t67 -55t33.5 -65.5t11 -60v-318zM360 198v316q0 23 -9 39t-23.5 23.5t-26.5 10t-24 2.5
q-13 0 -25.5 -2.5t-27.5 -10t-24 -23.5t-9 -39v-316q0 -44 27.5 -60.5t58.5 -16.5q17 0 33.5 4.5t33 23t16.5 49.5zM457 931q-11 -93 -56 -132t-120 -39q-73 0 -120 42.5t-56 128.5h105q5 -34 24.5 -54t46.5 -20q28 0 46.5 19.5t24.5 54.5h105z" />
    <glyph glyph-name="Ohungarumlaut" unicode="&#x150;" horiz-adv-x="596" 
d="M491 197q0 -29 -10.5 -61.5t-33 -66.5t-67 -56t-104.5 -22q-48 0 -86.5 15t-61.5 38t-38.5 52t-21.5 54.5t-6 47.5v318q0 29 10 60t32.5 64.5t67 55t105.5 21.5q58 0 102.5 -21.5t67 -55t33.5 -65.5t11 -60v-318zM360 198v316q0 23 -9 39t-23.5 23.5t-26.5 10t-24 2.5
q-13 0 -25.5 -2.5t-27.5 -10t-24 -23.5t-9 -39v-316q0 -44 27.5 -60.5t58.5 -16.5q17 0 33.5 4.5t33 23t16.5 49.5zM534 950l-138 -190h-121l113 190h146zM348 950l-133 -190h-121l111 190h143z" />
    <glyph glyph-name="ohungarumlaut" unicode="&#x151;" horiz-adv-x="596" 
d="M491 197q0 -29 -10.5 -61.5t-33 -66.5t-67 -56t-104.5 -22q-48 0 -86.5 15t-61.5 38t-38.5 52t-21.5 54.5t-6 47.5v318q0 29 10 60t32.5 64.5t67 55t105.5 21.5q58 0 102.5 -21.5t67 -55t33.5 -65.5t11 -60v-318zM360 198v316q0 23 -9 39t-23.5 23.5t-26.5 10t-24 2.5
q-13 0 -25.5 -2.5t-27.5 -10t-24 -23.5t-9 -39v-316q0 -44 27.5 -60.5t58.5 -16.5q17 0 33.5 4.5t33 23t16.5 49.5zM534 950l-138 -190h-121l113 190h146zM348 950l-133 -190h-121l111 190h143z" />
    <glyph glyph-name="OE" unicode="&#x152;" horiz-adv-x="815" 
d="M773 0h-413v7q-38 -16 -85 -16t-85 15t-61 38t-39 52t-22 54.5t-6 47.5v318q0 28 10 59.5t32.5 65t67 55t104.5 21.5q49 0 84 -13v8h413v-129h-283v-144h262v-129h-262v-181h283v-129zM276 121q18 0 34.5 4.5t33 21t16.5 44.5v323q0 23 -9 39t-23 23.5t-26.5 10
t-25.5 2.5t-25 -2.5t-26.5 -10t-23.5 -23.5t-9 -39v-316q0 -44 27 -60.5t57 -16.5z" />
    <glyph glyph-name="oe" unicode="&#x153;" horiz-adv-x="815" 
d="M773 0h-413v7q-38 -16 -85 -16t-85 15t-61 38t-39 52t-22 54.5t-6 47.5v318q0 28 10 59.5t32.5 65t67 55t104.5 21.5q49 0 84 -13v8h413v-129h-283v-144h262v-129h-262v-181h283v-129zM276 121q18 0 34.5 4.5t33 21t16.5 44.5v323q0 23 -9 39t-23 23.5t-26.5 10
t-25.5 2.5t-25 -2.5t-26.5 -10t-23.5 -23.5t-9 -39v-316q0 -44 27 -60.5t57 -16.5z" />
    <glyph glyph-name="Racute" unicode="&#x154;" horiz-adv-x="557" 
d="M535 0h-146l-129 275h-58v-275h-130v712h223q61 0 104.5 -21.5t64.5 -56t29.5 -65t8.5 -59.5v-31q0 -31 -7.5 -62t-33 -67.5t-66.5 -55.5zM371 480v27q0 44 -24 60t-54 16h-91v-179h93q76 0 76 76zM414 951l-116 -191h-107l92 191h131z" />
    <glyph glyph-name="racute" unicode="&#x155;" horiz-adv-x="557" 
d="M535 0h-146l-129 275h-58v-275h-130v712h223q61 0 104.5 -21.5t64.5 -56t29.5 -65t8.5 -59.5v-31q0 -31 -7.5 -62t-33 -67.5t-66.5 -55.5zM371 480v27q0 44 -24 60t-54 16h-91v-179h93q76 0 76 76zM414 951l-116 -191h-107l92 191h131z" />
    <glyph glyph-name="Rcommaaccent" unicode="&#x156;" horiz-adv-x="559" 
d="M535 0h-146l-129 275h-58v-275h-130v712h223q61 0 104.5 -21.5t64.5 -56t29.5 -65t8.5 -59.5v-31q0 -31 -7.5 -62t-33 -67.5t-66.5 -55.5zM371 480v27q0 44 -24 60t-54 16h-91v-179h93q76 0 76 76zM346 -23l-73 -188h-124l89 188h108z" />
    <glyph glyph-name="rcommaaccent" unicode="&#x157;" horiz-adv-x="559" 
d="M535 0h-146l-129 275h-58v-275h-130v712h223q61 0 104.5 -21.5t64.5 -56t29.5 -65t8.5 -59.5v-31q0 -31 -7.5 -62t-33 -67.5t-66.5 -55.5zM371 480v27q0 44 -24 60t-54 16h-91v-179h93q76 0 76 76zM346 -23l-73 -188h-124l89 188h108z" />
    <glyph glyph-name="Rcaron" unicode="&#x158;" horiz-adv-x="557" 
d="M535 0h-146l-129 275h-58v-275h-130v712h223q61 0 104.5 -21.5t64.5 -56t29.5 -65t8.5 -59.5v-31q0 -31 -7.5 -62t-33 -67.5t-66.5 -55.5zM371 480v27q0 44 -24 60t-54 16h-91v-179h93q76 0 76 76zM93 943h121l55 -56l17.5 17.5l21.5 21.5l17 17h120l-136 -171h-78z" />
    <glyph glyph-name="rcaron" unicode="&#x159;" horiz-adv-x="557" 
d="M535 0h-146l-129 275h-58v-275h-130v712h223q61 0 104.5 -21.5t64.5 -56t29.5 -65t8.5 -59.5v-31q0 -31 -7.5 -62t-33 -67.5t-66.5 -55.5zM371 480v27q0 44 -24 60t-54 16h-91v-179h93q76 0 76 76zM94 943h121l55 -56l56 56h120l-136 -171h-78z" />
    <glyph glyph-name="Sacute" unicode="&#x15a;" horiz-adv-x="530" 
d="M487 197q0 -89 -64.5 -147.5t-160.5 -58.5q-98 0 -158.5 63.5t-60.5 161.5h129q0 -45 25 -70.5t64 -25.5q44 0 71 22t27 57q0 47 -49 75q-23 14 -154 80q-45 22 -73.5 68.5t-28.5 101.5q0 86 58.5 140t150.5 54q95 0 155.5 -62t60.5 -158h-131q0 43 -23.5 67.5
t-61.5 24.5q-34 0 -57 -18t-23 -50q0 -36 42 -58q139 -71 146 -75q116 -63 116 -192zM410 951l-116 -191h-107l92 191h131z" />
    <glyph glyph-name="sacute" unicode="&#x15b;" horiz-adv-x="530" 
d="M487 197q0 -89 -64.5 -147.5t-160.5 -58.5q-98 0 -158.5 63.5t-60.5 161.5h129q0 -45 25 -70.5t64 -25.5q44 0 71 22t27 57q0 47 -49 75q-23 14 -154 80q-45 22 -73.5 68.5t-28.5 101.5q0 86 58.5 140t150.5 54q95 0 155.5 -62t60.5 -158h-131q0 43 -23.5 67.5
t-61.5 24.5q-34 0 -57 -18t-23 -50q0 -36 42 -58q139 -71 146 -75q116 -63 116 -192zM410 951l-116 -191h-107l92 191h131z" />
    <glyph glyph-name="Scircumflex" unicode="&#x15c;" horiz-adv-x="530" 
d="M487 197q0 -89 -64.5 -147.5t-160.5 -58.5q-98 0 -158.5 63.5t-60.5 161.5h129q0 -45 25 -70.5t64 -25.5q44 0 71 22t27 57q0 47 -49 75q-23 14 -154 80q-45 22 -73.5 68.5t-28.5 101.5q0 86 58.5 140t150.5 54q95 0 155.5 -62t60.5 -158h-131q0 43 -23.5 67.5
t-61.5 24.5q-34 0 -57 -18t-23 -50q0 -36 42 -58q139 -71 146 -75q116 -63 116 -192zM445 772h-119l-56 57l-56 -57h-121l138 171h78z" />
    <glyph glyph-name="scircumflex" unicode="&#x15d;" horiz-adv-x="530" 
d="M487 197q0 -89 -64.5 -147.5t-160.5 -58.5q-98 0 -158.5 63.5t-60.5 161.5h129q0 -45 25 -70.5t64 -25.5q44 0 71 22t27 57q0 47 -49 75q-23 14 -154 80q-45 22 -73.5 68.5t-28.5 101.5q0 86 58.5 140t150.5 54q95 0 155.5 -62t60.5 -158h-131q0 43 -23.5 67.5
t-61.5 24.5q-34 0 -57 -18t-23 -50q0 -36 42 -58q139 -71 146 -75q116 -63 116 -192zM445 772h-119l-56 57l-56 -57h-121l138 171h78z" />
    <glyph glyph-name="Scedilla" unicode="&#x15e;" horiz-adv-x="530" 
d="M487 197q0 -89 -64.5 -147.5t-160.5 -58.5q-98 0 -158.5 63.5t-60.5 161.5h129q0 -45 25 -70.5t64 -25.5q44 0 71 22t27 57q0 47 -49 75q-23 14 -154 80q-45 22 -73.5 68.5t-28.5 101.5q0 86 58.5 140t150.5 54q95 0 155.5 -62t60.5 -158h-131q0 43 -23.5 67.5
t-61.5 24.5q-34 0 -57 -18t-23 -50q0 -36 42 -58q139 -71 146 -75q116 -63 116 -192zM327 -24l-73 -188h-124l89 188h108z" />
    <glyph glyph-name="scedilla" unicode="&#x15f;" horiz-adv-x="530" 
d="M487 197q0 -89 -64.5 -147.5t-160.5 -58.5q-98 0 -158.5 63.5t-60.5 161.5h129q0 -45 25 -70.5t64 -25.5q44 0 71 22t27 57q0 47 -49 75q-23 14 -154 80q-45 22 -73.5 68.5t-28.5 101.5q0 86 58.5 140t150.5 54q95 0 155.5 -62t60.5 -158h-131q0 43 -23.5 67.5
t-61.5 24.5q-34 0 -57 -18t-23 -50q0 -36 42 -58q139 -71 146 -75q116 -63 116 -192zM327 -24l-73 -188h-124l89 188h108z" />
    <glyph glyph-name="Scaron" unicode="&#x160;" horiz-adv-x="530" 
d="M487 197q0 -89 -64.5 -147.5t-160.5 -58.5q-98 0 -158.5 63.5t-60.5 161.5h129q0 -45 25 -70.5t64 -25.5q44 0 71 22t27 57q0 47 -49 75q-23 14 -154 80q-45 22 -73.5 68.5t-28.5 101.5q0 86 58.5 140t150.5 54q95 0 155.5 -62t60.5 -158h-131q0 43 -23.5 67.5
t-61.5 24.5q-34 0 -57 -18t-23 -50q0 -36 42 -58q139 -71 146 -75q116 -63 116 -192zM90 943h121l55 -56l56 56h120l-136 -171h-78z" />
    <glyph glyph-name="scaron" unicode="&#x161;" horiz-adv-x="530" 
d="M487 197q0 -89 -64.5 -147.5t-160.5 -58.5q-98 0 -158.5 63.5t-60.5 161.5h129q0 -45 25 -70.5t64 -25.5q44 0 71 22t27 57q0 47 -49 75q-23 14 -154 80q-45 22 -73.5 68.5t-28.5 101.5q0 86 58.5 140t150.5 54q95 0 155.5 -62t60.5 -158h-131q0 43 -23.5 67.5
t-61.5 24.5q-34 0 -57 -18t-23 -50q0 -36 42 -58q139 -71 146 -75q116 -63 116 -192zM88 943h121l55 -56l56 56h120l-136 -171h-78z" />
    <glyph glyph-name="Tcommaaccent" unicode="&#x162;" horiz-adv-x="484" 
d="M466 582h-160v-582h-129v582h-159v130h448v-130zM301 -23l-73 -188h-124l89 188h108z" />
    <glyph glyph-name="tcommaaccent" unicode="&#x163;" horiz-adv-x="484" 
d="M466 582h-160v-582h-129v582h-159v130h448v-130zM301 -23l-73 -188h-124l89 188h108z" />
    <glyph glyph-name="Tcaron" unicode="&#x164;" horiz-adv-x="484" 
d="M466 582h-160v-582h-129v582h-159v130h448v-130zM65 943h121l55 -56l56 56h120l-136 -171h-78z" />
    <glyph glyph-name="tcaron" unicode="&#x165;" horiz-adv-x="484" 
d="M466 582h-160v-582h-129v582h-159v130h448v-130zM65 943h121l55 -56l56 56h120l-136 -171h-78z" />
    <glyph glyph-name="Tbar" unicode="&#x166;" horiz-adv-x="484" 
d="M466 582h-160v-227h105v-126h-105v-229h-129v229h-101v126h101v227h-159v130h448v-130z" />
    <glyph glyph-name="tbar" unicode="&#x167;" horiz-adv-x="484" 
d="M466 582h-160v-227h105v-126h-105v-229h-129v229h-101v126h101v227h-159v130h448v-130z" />
    <glyph glyph-name="Utilde" unicode="&#x168;" 
d="M491 197q0 -31 -10 -63.5t-32 -66t-66.5 -55t-105.5 -21.5t-105.5 21.5t-67 55.5t-32.5 66.5t-10 63.5v514h130v-514q0 -44 27 -60.5t58 -16.5q18 0 34.5 4.5t33 23t16.5 49.5v514h130v-515zM385 903l72 -72q-74 -71 -122 -71q-28 0 -61 20q-34 19 -52 19q-12 0 -51 -37
l-72 70q72 72 122 72q19 0 61 -20q34 -19 52 -19q12 0 51 38z" />
    <glyph glyph-name="utilde" unicode="&#x169;" 
d="M491 197q0 -31 -10 -63.5t-32 -66t-66.5 -55t-105.5 -21.5t-105.5 21.5t-67 55.5t-32.5 66.5t-10 63.5v514h130v-514q0 -44 27 -60.5t58 -16.5q18 0 34.5 4.5t33 23t16.5 49.5v514h130v-515zM385 903l72 -72q-74 -71 -122 -71q-28 0 -61 20q-34 19 -52 19q-12 0 -51 -37
l-72 70q72 72 122 72q19 0 61 -20q34 -19 52 -19q12 0 51 38z" />
    <glyph glyph-name="Umacron" unicode="&#x16a;" 
d="M491 197q0 -31 -10 -63.5t-32 -66t-66.5 -55t-105.5 -21.5t-105.5 21.5t-67 55.5t-32.5 66.5t-10 63.5v514h130v-514q0 -44 27 -60.5t58 -16.5q18 0 34.5 4.5t33 23t16.5 49.5v514h130v-515zM436 771h-321v107h321v-107z" />
    <glyph glyph-name="umacron" unicode="&#x16b;" 
d="M491 197q0 -31 -10 -63.5t-32 -66t-66.5 -55t-105.5 -21.5t-105.5 21.5t-67 55.5t-32.5 66.5t-10 63.5v514h130v-514q0 -44 27 -60.5t58 -16.5q18 0 34.5 4.5t33 23t16.5 49.5v514h130v-515zM436 771h-321v107h321v-107z" />
    <glyph glyph-name="Ubreve" unicode="&#x16c;" 
d="M491 197q0 -31 -10 -63.5t-32 -66t-66.5 -55t-105.5 -21.5t-105.5 21.5t-67 55.5t-32.5 66.5t-10 63.5v514h130v-514q0 -44 27 -60.5t58 -16.5q18 0 34.5 4.5t33 23t16.5 49.5v514h130v-515zM454 931q-11 -93 -56 -132t-120 -39q-73 0 -120 42.5t-56 128.5h105
q5 -34 24.5 -54t46.5 -20q28 0 46.5 19.5t24.5 54.5h105z" />
    <glyph glyph-name="ubreve" unicode="&#x16d;" 
d="M491 197q0 -31 -10 -63.5t-32 -66t-66.5 -55t-105.5 -21.5t-105.5 21.5t-67 55.5t-32.5 66.5t-10 63.5v514h130v-514q0 -44 27 -60.5t58 -16.5q18 0 34.5 4.5t33 23t16.5 49.5v514h130v-515zM454 931q-11 -93 -56 -132t-120 -39q-73 0 -120 42.5t-56 128.5h105
q5 -34 24.5 -54t46.5 -20q28 0 46.5 19.5t24.5 54.5h105z" />
    <glyph glyph-name="Uring" unicode="&#x16e;" 
d="M491 197q0 -31 -10 -63.5t-32 -66t-66.5 -55t-105.5 -21.5t-105.5 21.5t-67 55.5t-32.5 66.5t-10 63.5v514h130v-514q0 -44 27 -60.5t58 -16.5q18 0 34.5 4.5t33 23t16.5 49.5v514h130v-515zM395 856q0 -48 -34.5 -83.5t-84.5 -35.5q-48 0 -83 35.5t-35 83.5q0 49 35 84
t83 35q50 0 84.5 -34.5t34.5 -84.5zM314 856q0 15 -11 26t-27 11q-15 0 -26 -11t-11 -26t11 -26t26 -11q16 0 27 11t11 26z" />
    <glyph glyph-name="uring" unicode="&#x16f;" 
d="M491 197q0 -31 -10 -63.5t-32 -66t-66.5 -55t-105.5 -21.5t-105.5 21.5t-67 55.5t-32.5 66.5t-10 63.5v514h130v-514q0 -44 27 -60.5t58 -16.5q18 0 34.5 4.5t33 23t16.5 49.5v514h130v-515zM395 856q0 -48 -34.5 -83.5t-84.5 -35.5q-48 0 -83 35.5t-35 83.5q0 49 35 84
t83 35q50 0 84.5 -34.5t34.5 -84.5zM314 856q0 15 -11 26t-27 11q-15 0 -26 -11t-11 -26t11 -26t26 -11q16 0 27 11t11 26z" />
    <glyph glyph-name="Uhungarumlaut" unicode="&#x170;" horiz-adv-x="565" 
d="M491 197q0 -31 -10 -63.5t-32 -66t-66.5 -55t-105.5 -21.5t-105.5 21.5t-67 55.5t-32.5 66.5t-10 63.5v514h130v-514q0 -44 27 -60.5t58 -16.5q18 0 34.5 4.5t33 23t16.5 49.5v514h130v-515zM503 950l-138 -190h-121l113 190h146zM317 950l-133 -190h-121l111 190h143z
" />
    <glyph glyph-name="uhungarumlaut" unicode="&#x171;" horiz-adv-x="565" 
d="M491 197q0 -31 -10 -63.5t-32 -66t-66.5 -55t-105.5 -21.5t-105.5 21.5t-67 55.5t-32.5 66.5t-10 63.5v514h130v-514q0 -44 27 -60.5t58 -16.5q18 0 34.5 4.5t33 23t16.5 49.5v514h130v-515zM503 950l-138 -190h-121l113 190h146zM317 950l-133 -190h-121l111 190h143z
" />
    <glyph glyph-name="Uogonek" unicode="&#x172;" horiz-adv-x="552" 
d="M491 197q0 -31 -10 -63.5t-32 -66t-66.5 -55t-105.5 -21.5t-105.5 21.5t-67 55.5t-32.5 66.5t-10 63.5v514h130v-514q0 -44 27 -60.5t58 -16.5q18 0 34.5 4.5t33 23t16.5 49.5v514h130v-515zM444 -212h-135l-100 188h121z" />
    <glyph glyph-name="uogonek" unicode="&#x173;" 
d="M491 197q0 -31 -10 -63.5t-32 -66t-66.5 -55t-105.5 -21.5t-105.5 21.5t-67 55.5t-32.5 66.5t-10 63.5v514h130v-514q0 -44 27 -60.5t58 -16.5q18 0 34.5 4.5t33 23t16.5 49.5v514h130v-515zM442 -212h-135l-100 188h121z" />
    <glyph glyph-name="Wcircumflex" unicode="&#x174;" horiz-adv-x="790" 
d="M772 712l-148 -712h-124l-104 413l-107 -413h-123l-148 712h134l85 -438l110 437h95l110 -437l85 438h135zM572 772h-119l-56 57l-56 -57h-121l138 171h78z" />
    <glyph glyph-name="wcircumflex" unicode="&#x175;" horiz-adv-x="790" 
d="M772 712l-148 -712h-124l-104 413l-107 -413h-123l-148 712h134l85 -438l110 437h95l110 -437l85 438h135zM572 772h-119l-56 57l-56 -57h-121l138 171h78z" />
    <glyph glyph-name="Ycircumflex" unicode="&#x176;" horiz-adv-x="540" 
d="M522 712l-187 -454v-258h-130v260l-187 452h142l110 -275l111 275h141zM446 772h-119l-56 57l-56 -57h-121l138 171h78z" />
    <glyph glyph-name="ycircumflex" unicode="&#x177;" horiz-adv-x="540" 
d="M522 712l-187 -454v-258h-130v260l-187 452h142l110 -275l111 275h141zM446 772h-119l-56 57l-56 -57h-121l138 171h78z" />
    <glyph glyph-name="Ydieresis" unicode="&#x178;" horiz-adv-x="540" 
d="M522 712l-187 -454v-258h-130v260l-187 452h142l110 -275l111 275h141zM428 771h-126v141h126v-141zM239 771h-125v141h125v-141z" />
    <glyph glyph-name="Zacute" unicode="&#x179;" horiz-adv-x="468" 
d="M446 0h-424v102l254 481h-240v129h396v-100l-253 -483h267v-129zM366 951l-116 -191h-107l92 191h131z" />
    <glyph glyph-name="zacute" unicode="&#x17a;" horiz-adv-x="468" 
d="M446 0h-424v102l254 481h-240v129h396v-100l-253 -483h267v-129zM366 951l-116 -191h-107l92 191h131z" />
    <glyph glyph-name="Zdotaccent" unicode="&#x17b;" horiz-adv-x="468" 
d="M446 0h-424v102l254 481h-240v129h396v-100l-253 -483h267v-129zM301 771h-127v122h127v-122z" />
    <glyph glyph-name="zdotaccent" unicode="&#x17c;" horiz-adv-x="468" 
d="M446 0h-424v102l254 481h-240v129h396v-100l-253 -483h267v-129zM301 771h-127v122h127v-122z" />
    <glyph glyph-name="Zcaron" unicode="&#x17d;" horiz-adv-x="468" 
d="M446 0h-424v102l254 481h-240v129h396v-100l-253 -483h267v-129zM63 943h121l55 -56l17.5 17.5l21.5 21.5l17 17h120l-136 -171h-78z" />
    <glyph glyph-name="zcaron" unicode="&#x17e;" horiz-adv-x="468" 
d="M446 0h-424v102l254 481h-240v129h396v-100l-253 -483h267v-129zM63 943h121l55 -56l17.5 17.5l21.5 21.5l17 17h120l-136 -171h-78z" />
    <glyph glyph-name="longs" unicode="&#x17f;" horiz-adv-x="304" 
d="M199 540v-540h-111v412h-83v111h83v6q0 74 37.5 116t112.5 42h65v-110h-73q-31 0 -31 -37z" />
    <glyph glyph-name="florin" unicode="&#x192;" horiz-adv-x="338" 
d="M216 -41q0 -76 -38.5 -113t-101.5 -37h-54v124h50q19 0 19 22v442h-79v125h79q1 74 39.5 116t114.5 42h71v-124h-78q-22 0 -22 -26v-8h110v-125h-110v-438z" />
    <glyph glyph-name="Scommaaccent" unicode="&#x218;" horiz-adv-x="530" 
d="M487 197q0 -89 -64.5 -147.5t-160.5 -58.5q-98 0 -158.5 63.5t-60.5 161.5h129q0 -45 25 -70.5t64 -25.5q44 0 71 22t27 57q0 47 -49 75q-23 14 -154 80q-45 22 -73.5 68.5t-28.5 101.5q0 86 58.5 140t150.5 54q95 0 155.5 -62t60.5 -158h-131q0 43 -23.5 67.5
t-61.5 24.5q-34 0 -57 -18t-23 -50q0 -36 42 -58q139 -71 146 -75q116 -63 116 -192zM331 -27l-73 -188h-124l89 188h108z" />
    <glyph glyph-name="scommaaccent" unicode="&#x219;" horiz-adv-x="530" 
d="M487 197q0 -89 -64.5 -147.5t-160.5 -58.5q-98 0 -158.5 63.5t-60.5 161.5h129q0 -45 25 -70.5t64 -25.5q44 0 71 22t27 57q0 47 -49 75q-23 14 -154 80q-45 22 -73.5 68.5t-28.5 101.5q0 86 58.5 140t150.5 54q95 0 155.5 -62t60.5 -158h-131q0 43 -23.5 67.5
t-61.5 24.5q-34 0 -57 -18t-23 -50q0 -36 42 -58q139 -71 146 -75q116 -63 116 -192zM327 -25l-73 -188h-124l89 188h108z" />
    <glyph glyph-name="circumflex" unicode="&#x2c6;" horiz-adv-x="496" 
d="M424 530h-119l-56 57l-56 -57h-121l138 171h78z" />
    <glyph glyph-name="caron" unicode="&#x2c7;" horiz-adv-x="496" 
d="M72 702h121l55 -56l17.5 17.5l21.5 21.5l17 17h120l-136 -171h-78z" />
    <glyph glyph-name="breve" unicode="&#x2d8;" horiz-adv-x="496" 
d="M424 693q-11 -93 -56 -132t-120 -39q-73 0 -120 42.5t-56 128.5h105q5 -34 24.5 -54t46.5 -20q28 0 46.5 19.5t24.5 54.5h105z" />
    <glyph glyph-name="dotaccent" unicode="&#x2d9;" horiz-adv-x="271" 
d="M199 555h-127v122h127v-122z" />
    <glyph glyph-name="ring" unicode="&#x2da;" horiz-adv-x="382" 
d="M310 631q0 -48 -34.5 -83.5t-84.5 -35.5q-48 0 -83 35.5t-35 83.5q0 49 35 84t83 35q50 0 84.5 -34.5t34.5 -84.5zM229 631q0 15 -11 26t-27 11q-15 0 -26 -11t-11 -26t11 -26t26 -11q16 0 27 11t11 26z" />
    <glyph glyph-name="ogonek" unicode="&#x2db;" horiz-adv-x="359" 
d="M307 -163h-135l-100 188h121z" />
    <glyph glyph-name="tilde" unicode="&#x2dc;" horiz-adv-x="502" 
d="M358 675l72 -72q-74 -71 -122 -71q-28 0 -61 20q-34 19 -52 19q-12 0 -51 -37l-72 70q72 72 122 72q19 0 61 -20q34 -19 52 -19q12 0 51 38z" />
    <glyph glyph-name="hungarumlaut" unicode="&#x2dd;" horiz-adv-x="584" 
d="M512 711l-138 -190h-121l113 190h146zM326 711l-133 -190h-121l111 190h143z" />
    <glyph glyph-name="pi" unicode="&#x3c0;" horiz-adv-x="625" 
d="M482 0h-110v424h-108v-424h-110v424h-86v105h489v-105h-75v-424z" />
    <glyph glyph-name="endash" unicode="&#x2013;" horiz-adv-x="573" 
d="M501 227h-429v106h429v-106z" />
    <glyph glyph-name="emdash" unicode="&#x2014;" horiz-adv-x="799" 
d="M727 227h-655v106h655v-106z" />
    <glyph glyph-name="quoteleft" unicode="&#x2018;" horiz-adv-x="273" 
d="M260 743l-91 -244h-147l152 244h86z" />
    <glyph glyph-name="quoteright" unicode="&#x2019;" horiz-adv-x="272" 
d="M259 743l-153 -244h-84l90 244h147z" />
    <glyph glyph-name="quotesinglbase" unicode="&#x201a;" horiz-adv-x="260" 
d="M267 138l-156 -249h-89l92 249h153z" />
    <glyph glyph-name="quotedblleft" unicode="&#x201c;" horiz-adv-x="468" 
d="M446 777l-94 -249h-154l157 249h91zM267 777l-92 -249h-153l156 249h89z" />
    <glyph glyph-name="quotedblright" unicode="&#x201d;" horiz-adv-x="467" 
d="M445 777l-155 -249h-92l94 249h153zM267 777l-156 -249h-89l92 249h153z" />
    <glyph glyph-name="quotedblbase" unicode="&#x201e;" horiz-adv-x="467" 
d="M445 138l-155 -249h-92l94 249h153zM267 138l-156 -249h-89l92 249h153z" />
    <glyph glyph-name="dagger" unicode="&#x2020;" horiz-adv-x="449" 
d="M275 -51h-104v478h-103v105h103v205h104v-205h106v-105h-106v-478z" />
    <glyph glyph-name="daggerdbl" unicode="&#x2021;" horiz-adv-x="449" 
d="M275 -51h-104v206h-103v105h103v168h-103v105h103v204h104v-204h106v-105h-106v-168h106v-105h-106v-206z" />
    <glyph glyph-name="bullet" unicode="&#x2022;" horiz-adv-x="387" 
d="M315 340q0 -50 -35 -85.5t-86 -35.5t-86.5 35.5t-35.5 85.5q0 52 35.5 87.5t86.5 35.5t86 -35.5t35 -87.5z" />
    <glyph glyph-name="ellipsis" unicode="&#x2026;" horiz-adv-x="651" 
d="M583 0h-129v138h129v-138zM389 0h-128v138h128v-138zM198 0h-130v138h130v-138z" />
    <glyph glyph-name="perthousand" unicode="&#x2030;" horiz-adv-x="1098" 
d="M345 444q0 -61 -37 -97t-99 -36t-98 36t-36 97v89q0 59 36.5 95t97.5 36q63 0 99.5 -35.5t36.5 -95.5v-89zM239 444v89q0 26 -30 26q-29 0 -29 -26v-89q0 -29 29 -29q30 0 30 29zM731 125q0 -62 -37 -98.5t-99 -36.5t-98.5 36.5t-36.5 98.5v88q0 59 37 95.5t98 36.5
q62 0 99 -36t37 -96v-88zM624 125v88q0 25 -29 25t-29 -25v-88q0 -29 29 -29t29 29zM1026 125q0 -62 -36.5 -98.5t-98.5 -36.5t-98.5 36.5t-36.5 98.5v88q0 60 36.5 96t98.5 36t98.5 -36t36.5 -96v-88zM921 125v88q0 25 -30 25t-30 -25v-88q0 -29 30 -29t30 29zM591 737
l-256 -785h-115l258 785h113z" />
    <glyph glyph-name="guilsinglleft" unicode="&#x2039;" horiz-adv-x="315" 
d="M253 32l-231 230l231 233v-147l-84 -86l84 -84v-146z" />
    <glyph glyph-name="guilsinglright" unicode="&#x203a;" horiz-adv-x="314" 
d="M292 262l-230 -230v146l85 84l-85 86v147z" />
    <glyph glyph-name="fraction" unicode="&#x2044;" horiz-adv-x="584" 
d="M512 687l-321 -687h-119l322 687h118z" />
    <glyph glyph-name="Euro" unicode="&#x20ac;" horiz-adv-x="560" 
d="M394 199h133q0 -23 -5.5 -48t-20.5 -54t-38 -52t-61.5 -38t-86.5 -15q-59 0 -102 22t-63 56.5t-28.5 66t-8.5 61.5v32h-75v107h75v43h-75v107h75v28q0 23 4.5 47t18.5 52.5t36 50.5t60 37t87 15t87 -15t60 -37.5t36 -51.5t18.5 -53t4.5 -47h-131q0 74 -75 74t-75 -74v-26
h123v-107h-123v-43h123v-107h-123v-31q0 -44 23.5 -60.5t51.5 -16.5t51.5 16.5t23.5 60.5z" />
    <glyph glyph-name="trademark" unicode="&#x2122;" horiz-adv-x="709" 
d="M637 302h-85v208l-24 -116h-63l-24 116v-208h-85v391h104l37 -131l34 131h106v-391zM334 607h-88v-305h-86v305h-88v86h262v-86z" />
    <glyph glyph-name="product" unicode="&#x220f;" horiz-adv-x="555" 
d="M487 0h-110v579h-200v-579h-109v687h419v-687z" />
    <glyph glyph-name="minus" unicode="&#x2212;" horiz-adv-x="559" 
d="M472 227h-385v106h385v-106z" />
    <glyph glyph-name="radical" unicode="&#x221a;" horiz-adv-x="611" 
d="M68 325h115l102 -371l203 733h115l-248 -886h-140z" />
    <glyph glyph-name="infinity" unicode="&#x221e;" horiz-adv-x="823" 
d="M411 181q-28 -45 -70 -73t-90 -28q-80 0 -131.5 56t-51.5 143q0 86 51.5 141.5t131.5 55.5q48 0 90.5 -28t69.5 -71q61 99 161 99q80 0 131.5 -55.5t51.5 -141.5q0 -87 -51.5 -143t-131.5 -56q-46 0 -89 28.5t-72 72.5zM500 317l-27 -39l27 -40q34 -51 69 -51
q37 0 58 26.5t21 65.5q0 38 -21 63.5t-58 25.5q-33 0 -69 -51zM254 368q-36 0 -57.5 -25.5t-21.5 -63.5q0 -39 21.5 -65.5t57.5 -26.5q35 0 69 51l27 40l-27 39q-36 51 -69 51z" />
    <glyph glyph-name="integral" unicode="&#x222b;" horiz-adv-x="302" 
d="M191 -53q0 -74 -38 -110t-98 -36h-47v109h43q31 0 31 32v588q0 74 37.5 115.5t111.5 41.5h63v-108h-71q-32 0 -32 -38v-594z" />
    <glyph glyph-name="approxequal" unicode="&#x2248;" horiz-adv-x="560" 
d="M407 450l81 -62q-53 -51 -81.5 -67t-60.5 -16q-25 0 -69.5 20.5t-67.5 20.5q-18 0 -60 -43l-77 63q50 50 78.5 66.5t60.5 16.5q25 0 69 -21t68 -21q15 0 59 43zM407 293l81 -62q-53 -51 -81.5 -67t-60.5 -16q-25 0 -69.5 20.5t-67.5 20.5q-18 0 -60 -43l-77 63
q50 50 78.5 66.5t60.5 16.5q25 0 69 -21t68 -21q15 0 59 43z" />
    <glyph glyph-name="notequal" unicode="&#x2260;" horiz-adv-x="583" 
d="M489 151h-202l-97 -211h-118l98 211h-73v105h123l30 65h-153v105h203l94 201h117l-94 -201h72v-105h-121l-32 -65h153v-105z" />
    <glyph glyph-name="lessequal" unicode="&#x2264;" horiz-adv-x="493" 
d="M426 131h-153l-238 238l261 261h152l-261 -261zM445 0h-387v107h387v-107z" />
    <glyph glyph-name="greaterequal" unicode="&#x2265;" horiz-adv-x="494" 
d="M459 369l-240 -238h-151l238 237l-261 262h152zM434 0h-386v107h386v-107z" />
    </font>
</defs>
</svg>
